<svg width="12" height="12" viewBox="0 0 12 12" fill="none" xmlns="http://www.w3.org/2000/svg">
<path d="M5.99364 7.36177L1.63505 11.7204C1.44015 11.9153 1.21868 12.0083 0.970631 11.9994C0.722581 11.9906 0.501107 11.8887 0.306211 11.6938C0.111314 11.4989 0.0138662 11.273 0.0138662 11.0161C0.0138662 10.7592 0.111314 10.5333 0.306211 10.3384L4.63823 6.00636L0.279634 1.64776C0.0847376 1.45286 -0.00828118 1.22696 0.000577756 0.970053C0.00943669 0.713144 0.111314 0.487241 0.306211 0.292345C0.501107 0.0974482 0.72701 0 0.983919 0C1.24083 0 1.46673 0.0974482 1.66163 0.292345L5.99364 4.65094L10.3522 0.292345C10.5471 0.0974482 10.773 0 11.0299 0C11.2869 0 11.5128 0.0974482 11.7077 0.292345C11.9026 0.487241 12 0.713144 12 0.970053C12 1.22696 11.9026 1.45286 11.7077 1.64776L7.34906 6.00636L11.7077 10.3649C11.9026 10.5598 12 10.7813 12 11.0294C12 11.2774 11.9026 11.4989 11.7077 11.6938C11.5128 11.8887 11.2869 11.9861 11.0299 11.9861C10.773 11.9861 10.5471 11.8887 10.3522 11.6938L5.99364 7.36177Z" fill="#FD6B36"/>
</svg>
