<svg width="16" height="22" viewBox="0 0 16 22" fill="none" xmlns="http://www.w3.org/2000/svg">
<path d="M8.37479 18.989L8 18.8374L7.62521 18.989L2.92861 20.8876C2.92805 20.8878 2.92749 20.888 2.92694 20.8883C2.46506 21.0725 2.06801 21.0341 1.62436 20.736C1.18488 20.4407 1 20.0883 1 19.5827V3.11606C1 2.71159 1.13011 2.40017 1.40711 2.12317C1.68411 1.84617 1.99552 1.71606 2.4 1.71606H13.6C14.0045 1.71606 14.3159 1.84617 14.5929 2.12317L15.3 1.41606L14.5929 2.12317C14.8699 2.40017 15 2.71159 15 3.11606V19.5827C15 20.0883 14.8151 20.4407 14.3756 20.736C13.932 21.0341 13.535 21.0725 13.0731 20.8883C13.0726 20.8881 13.072 20.8878 13.0714 20.8876L8.37479 18.989Z" fill="#D0CFCF" stroke="white" stroke-width="2"/>
</svg>
