<svg width="18" height="24" viewBox="0 0 18 24" fill="current" xmlns="http://www.w3.org/2000/svg">
<g filter="url(#filter0_d_2436_6160)">
<path d="M7.02083 7.99992L12.8958 13.8749C13.0903 14.0694 13.1875 14.3055 13.1875 14.5833C13.1875 14.861 13.0903 15.0971 12.8958 15.2916C12.7014 15.486 12.4653 15.5833 12.1875 15.5833C11.9097 15.5833 11.6736 15.486 11.4792 15.2916L5.25 9.06242C5.09722 8.90964 4.98611 8.74297 4.91667 8.56242C4.84722 8.38186 4.8125 8.19436 4.8125 7.99992C4.8125 7.80547 4.84722 7.61797 4.91667 7.43742C4.98611 7.25686 5.09722 7.0902 5.25 6.93742L11.4792 0.708252C11.6736 0.513807 11.9097 0.416585 12.1875 0.416585C12.4653 0.416585 12.7014 0.513807 12.8958 0.708252C13.0903 0.902697 13.1875 1.13881 13.1875 1.41658C13.1875 1.69436 13.0903 1.93047 12.8958 2.12492L7.02083 7.99992Z" fill="current"/>
</g>
<defs>
<filter id="filter0_d_2436_6160" x="0.8125" y="0.416504" width="16.375" height="23.1667" filterUnits="userSpaceOnUse" color-interpolation-filters="sRGB">
<feFlood flood-opacity="0" result="BackgroundImageFix"/>
<feColorMatrix in="SourceAlpha" type="matrix" values="0 0 0 0 0 0 0 0 0 0 0 0 0 0 0 0 0 0 127 0" result="hardAlpha"/>
<feOffset dy="4"/>
<feGaussianBlur stdDeviation="2"/>
<feComposite in2="hardAlpha" operator="out"/>
<feColorMatrix type="matrix" values="0 0 0 0 0 0 0 0 0 0 0 0 0 0 0 0 0 0 0.25 0"/>
<feBlend mode="normal" in2="BackgroundImageFix" result="effect1_dropShadow_2436_6160"/>
<feBlend mode="normal" in="SourceGraphic" in2="effect1_dropShadow_2436_6160" result="shape"/>
</filter>
</defs>
</svg>
