<svg width="18" height="18" viewBox="0 0 18 18" fill="none" xmlns="http://www.w3.org/2000/svg">
<mask id="mask0_2358_2331" style="mask-type:alpha" maskUnits="userSpaceOnUse" x="0" y="0" width="18" height="18">
<rect width="18" height="18" fill="#D9D9D9"/>
</mask>
<g mask="url(#mask0_2358_2331)">
<path d="M9.02252 12.0377C9.97105 12.0377 10.7766 11.6995 11.4391 11.023C12.1016 10.3465 12.4328 9.53402 12.4328 8.58548C12.4328 7.63696 12.1008 6.83145 11.4369 6.16895C10.7729 5.50645 9.96664 5.1752 9.0181 5.1752C8.06957 5.1752 7.25781 5.50718 6.58281 6.17116C5.90781 6.83512 5.57031 7.64137 5.57031 8.58991C5.57031 9.54885 5.90594 10.3632 6.57721 11.033C7.24847 11.7028 8.06358 12.0377 9.02252 12.0377ZM9.02031 10.6314C8.4526 10.6314 7.97005 10.4327 7.57266 10.0353C7.17526 9.63796 6.97656 9.15541 6.97656 8.5877C6.97656 8.03041 7.17526 7.55671 7.57266 7.1666C7.97005 6.7765 8.4526 6.58145 9.02031 6.58145C9.5776 6.58145 10.0513 6.7765 10.4414 7.1666C10.8315 7.55671 11.0266 8.03041 11.0266 8.5877C11.0266 9.15541 10.8315 9.63796 10.4414 10.0353C10.0513 10.4327 9.5776 10.6314 9.02031 10.6314ZM9.00156 14.2502C7.25156 14.2502 5.65781 13.7877 4.22031 12.8627C2.78281 11.9377 1.70156 10.6939 0.976562 9.13145C0.951563 9.06895 0.929688 8.99082 0.910937 8.89707C0.892187 8.80332 0.882812 8.70645 0.882812 8.60645C0.882812 8.50645 0.892187 8.40957 0.910937 8.31582C0.929688 8.22207 0.951563 8.14395 0.976562 8.08145C1.70156 6.51895 2.78476 5.27832 4.22616 4.35957C5.66755 3.44082 7.25935 2.98145 9.00156 2.98145C10.7438 2.98145 12.3356 3.44082 13.777 4.35957C15.2184 5.27832 16.3016 6.51895 17.0266 8.08145C17.0516 8.14395 17.0734 8.22207 17.0922 8.31582C17.1109 8.40957 17.1203 8.50645 17.1203 8.60645C17.1203 8.70645 17.1109 8.80332 17.0922 8.89707C17.0734 8.99082 17.0516 9.06895 17.0266 9.13145C16.3016 10.6939 15.2203 11.9377 13.7828 12.8627C12.3453 13.7877 10.7516 14.2502 9.00156 14.2502Z" fill="#FD6B36"/>
</g>
</svg>
