<svg width="14" height="15" viewBox="0 0 14 15" fill="none" xmlns="http://www.w3.org/2000/svg">
<path d="M7.42656 8.90005L2.52656 13.8C2.34323 13.9834 2.1099 14.075 1.82656 14.075C1.54323 14.075 1.3099 13.9834 1.12656 13.8C0.943229 13.6167 0.851562 13.3834 0.851562 13.1C0.851562 12.8167 0.943229 12.5834 1.12656 12.4L6.02656 7.50005L1.12656 2.60005C0.943229 2.41672 0.851562 2.18338 0.851562 1.90005C0.851562 1.61672 0.943229 1.38338 1.12656 1.20005C1.3099 1.01672 1.54323 0.925049 1.82656 0.925049C2.1099 0.925049 2.34323 1.01672 2.52656 1.20005L7.42656 6.10005L12.3266 1.20005C12.5099 1.01672 12.7432 0.925049 13.0266 0.925049C13.3099 0.925049 13.5432 1.01672 13.7266 1.20005C13.9099 1.38338 14.0016 1.61672 14.0016 1.90005C14.0016 2.18338 13.9099 2.41672 13.7266 2.60005L8.82656 7.50005L13.7266 12.4C13.9099 12.5834 14.0016 12.8167 14.0016 13.1C14.0016 13.3834 13.9099 13.6167 13.7266 13.8C13.5432 13.9834 13.3099 14.075 13.0266 14.075C12.7432 14.075 12.5099 13.9834 12.3266 13.8L7.42656 8.90005Z" fill="#717070"/>
</svg>
