<svg width="24" height="25" viewBox="0 0 24 25" fill="none" xmlns="http://www.w3.org/2000/svg">
<mask id="mask0_117_4300" style="mask-type:alpha" maskUnits="userSpaceOnUse" x="0" y="0" width="24" height="25">
<rect y="0.5" width="24" height="24" fill="#D9D9D9"/>
</mask>
<g mask="url(#mask0_117_4300)">
<path d="M14.475 12.5L7.12499 5.15C6.87499 4.9 6.75415 4.60417 6.76249 4.2625C6.77082 3.92083 6.89999 3.625 7.14999 3.375C7.39999 3.125 7.69582 3 8.03749 3C8.37915 3 8.67499 3.125 8.92499 3.375L16.6 11.075C16.8 11.275 16.95 11.5 17.05 11.75C17.15 12 17.2 12.25 17.2 12.5C17.2 12.75 17.15 13 17.05 13.25C16.95 13.5 16.8 13.725 16.6 13.925L8.89999 21.625C8.64999 21.875 8.35832 21.9958 8.02499 21.9875C7.69165 21.9792 7.39999 21.85 7.14999 21.6C6.89999 21.35 6.77499 21.0542 6.77499 20.7125C6.77499 20.3708 6.89999 20.075 7.14999 19.825L14.475 12.5Z" fill="#717070"/>
</g>
</svg>
