<svg width="67" height="67" viewBox="0 0 67 67" fill="none" xmlns="http://www.w3.org/2000/svg">
<path d="M37.8151 60.7385H28.7401C28.2359 60.7385 27.7891 60.5781 27.3995 60.2573C27.0099 59.9364 26.7693 59.5239 26.6776 59.0198L25.5776 52.076C24.7068 51.7552 23.7901 51.3198 22.8276 50.7698C21.8651 50.2198 21.0172 49.6469 20.2839 49.051L13.8901 52.0073C13.3859 52.2364 12.8818 52.2708 12.3776 52.1104C11.8734 51.95 11.4839 51.6177 11.2089 51.1135L6.67136 43.0698C6.39636 42.6114 6.32761 42.1302 6.46511 41.626C6.60261 41.1219 6.87761 40.7094 7.29011 40.3885L13.2026 36.0573C13.1109 35.6448 13.0537 35.175 13.0307 34.6479C13.0078 34.1208 12.9964 33.651 12.9964 33.2385C12.9964 32.826 13.0078 32.3562 13.0307 31.8292C13.0537 31.3021 13.1109 30.8323 13.2026 30.4198L7.29011 26.0885C6.87761 25.7677 6.60261 25.3552 6.46511 24.851C6.32761 24.3469 6.39636 23.8656 6.67136 23.4073L11.2089 15.3635C11.4839 14.8594 11.8734 14.5271 12.3776 14.3667C12.8818 14.2062 13.3859 14.2406 13.8901 14.4698L20.2839 17.426C21.0172 16.8302 21.8651 16.2573 22.8276 15.7073C23.7901 15.1573 24.7068 14.7448 25.5776 14.4698L26.6776 7.45728C26.7693 6.95311 27.0099 6.54061 27.3995 6.21978C27.7891 5.89894 28.2359 5.73853 28.7401 5.73853H37.8151C38.3193 5.73853 38.7662 5.89894 39.1557 6.21978C39.5453 6.54061 39.7859 6.95311 39.8776 7.45728L40.9776 14.401C41.8484 14.7219 42.7766 15.1458 43.762 15.6729C44.7474 16.2 45.5839 16.7844 46.2714 17.426L52.6651 14.4698C53.1693 14.2406 53.6734 14.2062 54.1776 14.3667C54.6818 14.5271 55.0714 14.8594 55.3464 15.3635L59.8839 23.3385C60.1589 23.7969 60.2391 24.2896 60.1245 24.8167C60.0099 25.3437 59.7234 25.7677 59.2651 26.0885L53.3526 30.2823C53.4443 30.7406 53.5016 31.2333 53.5245 31.7604C53.5474 32.2875 53.5589 32.7802 53.5589 33.2385C53.5589 33.6969 53.5474 34.1781 53.5245 34.6823C53.5016 35.1864 53.4443 35.6677 53.3526 36.126L59.2651 40.3885C59.6776 40.7094 59.9526 41.1219 60.0901 41.626C60.2276 42.1302 60.1589 42.6114 59.8839 43.0698L55.3464 51.1135C55.0714 51.6177 54.6818 51.95 54.1776 52.1104C53.6734 52.2708 53.1693 52.2364 52.6651 52.0073L46.2714 49.051C45.538 49.6469 44.7016 50.2312 43.762 50.8042C42.8224 51.3771 41.8943 51.801 40.9776 52.076L39.8776 59.0198C39.7859 59.5239 39.5453 59.9364 39.1557 60.2573C38.7662 60.5781 38.3193 60.7385 37.8151 60.7385ZM30.2526 56.6135H36.3026L37.2651 48.9135C38.7776 48.5469 40.2099 47.9739 41.562 47.1948C42.9141 46.4156 44.1401 45.476 45.2401 44.376L52.5276 47.5385L55.2776 42.5885L48.8151 37.8448C48.9984 37.0656 49.1474 36.2979 49.262 35.5417C49.3766 34.7854 49.4339 34.0177 49.4339 33.2385C49.4339 32.4594 49.388 31.6917 49.2964 30.9354C49.2047 30.1792 49.0443 29.4114 48.8151 28.6323L55.2776 23.8885L52.5276 18.9385L45.2401 22.101C44.1859 20.9094 42.9943 19.9125 41.6651 19.1104C40.3359 18.3083 38.8693 17.7927 37.2651 17.5635L36.3026 9.86353H30.2526L29.2901 17.5635C27.7318 17.8844 26.2766 18.4344 24.9245 19.2135C23.5724 19.9927 22.3693 20.9552 21.3151 22.101L14.0276 18.9385L11.2776 23.8885L17.7401 28.6323C17.5568 29.4114 17.4078 30.1792 17.2932 30.9354C17.1787 31.6917 17.1214 32.4594 17.1214 33.2385C17.1214 34.0177 17.1787 34.7854 17.2932 35.5417C17.4078 36.2979 17.5568 37.0656 17.7401 37.8448L11.2776 42.5885L14.0276 47.5385L21.3151 44.376C22.4151 45.476 23.6412 46.4156 24.9932 47.1948C26.3453 47.9739 27.7776 48.5469 29.2901 48.9135L30.2526 56.6135Z" fill="#121110"/>
<path fill-rule="evenodd" clip-rule="evenodd" d="M33.167 37.676C34.5869 37.676 35.6761 37.2225 36.6635 36.2351C37.651 35.2477 38.1045 34.1584 38.1045 32.7385C38.1045 31.3186 37.651 30.2294 36.6635 29.242C35.6761 28.2545 34.5869 27.801 33.167 27.801C31.747 27.801 30.6578 28.2545 29.6704 29.242C28.6829 30.2294 28.2295 31.3186 28.2295 32.7385C28.2295 34.1584 28.6829 35.2477 29.6704 36.2351C30.6578 37.2225 31.747 37.676 33.167 37.676ZM33.167 41.676C35.642 41.676 37.7503 40.8052 39.492 39.0635C41.2336 37.3219 42.1045 35.2135 42.1045 32.7385C42.1045 30.2635 41.2336 28.1552 39.492 26.4135C37.7503 24.6719 35.642 23.801 33.167 23.801C30.692 23.801 28.5836 24.6719 26.842 26.4135C25.1003 28.1552 24.2295 30.2635 24.2295 32.7385C24.2295 35.2135 25.1003 37.3219 26.842 39.0635C28.5836 40.8052 30.692 41.676 33.167 41.676Z" fill="#FD6B36"/>
</svg>
