<svg width="49" height="52" viewBox="0 0 49 52" fill="none" xmlns="http://www.w3.org/2000/svg">
<path d="M4.58928 46.449C3.54717 46.449 2.65507 46.078 1.91296 45.3359C1.17086 44.5938 0.799805 43.7017 0.799805 42.6596V4.76482C0.799805 3.72271 1.17086 2.83061 1.91296 2.0885C2.65507 1.34639 3.54717 0.975342 4.58928 0.975342H36.3577L46.2735 10.8911V25.9227C45.684 25.5859 45.0735 25.3438 44.4419 25.1964C43.8103 25.049 43.1577 24.9753 42.484 24.9753V12.5964L34.6524 4.76482H4.58928V42.6596H22.2735V46.449H4.58928ZM26.063 51.5017V43.7332L40.0209 29.8385C40.3998 29.4596 40.8209 29.1859 41.284 29.0175C41.7472 28.849 42.2103 28.7648 42.6735 28.7648C43.1788 28.7648 43.663 28.8596 44.1261 29.049C44.5893 29.2385 45.0103 29.5227 45.3893 29.9017L47.7261 32.2385C48.1051 32.6174 48.3787 33.0385 48.5472 33.5017C48.7156 33.9648 48.7998 34.428 48.7998 34.8911C48.7998 35.3543 48.7051 35.828 48.5156 36.3122C48.3261 36.7964 48.0438 37.228 47.6686 37.6069L33.8314 51.5017H26.063ZM29.8524 47.7122H32.2524L39.8945 40.0069L38.7577 38.8069L37.5577 37.6701L29.8524 45.3122V47.7122ZM38.7577 38.8069L37.5577 37.6701L39.8945 40.0069L38.7577 38.8069Z" fill="#121110"/>
<path d="M30.9894 17.5858H8.37891V8.5542H30.9894V17.5858Z" fill="color"/>
<path d="M25.6842 38.8068C25.1368 38.9331 24.5684 38.9963 23.9789 38.9963C22.1544 38.9963 20.6035 38.3542 19.3263 37.07C18.0491 35.7858 17.4105 34.2335 17.4105 32.413C17.4105 30.5926 18.0526 29.0452 19.3368 27.7709C20.621 26.4966 22.1733 25.8595 23.9937 25.8595C25.8142 25.8595 27.3616 26.4981 28.6359 27.7752C29.9102 29.0525 30.5473 30.6033 30.5473 32.4279C30.5473 33.0174 30.4736 33.5858 30.3263 34.1331C30.1789 34.6805 29.9579 35.1858 29.6631 35.6489L27.2 38.1753C26.7368 38.47 26.2315 38.6805 25.6842 38.8068Z" fill="color"/>
</svg>
