<svg width="20" height="20" viewBox="0 0 20 20" fill="none" xmlns="http://www.w3.org/2000/svg">
<mask id="mask0_523_9191" style="mask-type:alpha" maskUnits="userSpaceOnUse" x="0" y="0" width="20" height="20">
<rect x="20" width="20" height="20" transform="rotate(90 20 0)" fill="#D9D9D9"/>
</mask>
<g mask="url(#mask0_523_9191)">
<path d="M9 3.07112C9 2.77023 9.09527 2.51649 9.28581 2.3099C9.47636 2.1033 9.71247 2 9.99414 2C10.2758 2 10.5139 2.10176 10.7083 2.30529C10.9028 2.50884 11 2.76105 11 3.06194L11 17.9289C11 18.2298 10.9047 18.4835 10.7142 18.6901C10.5236 18.8967 10.2875 19 10.0059 19C9.72418 19 9.48611 18.8982 9.29167 18.6947C9.09722 18.4912 9 18.2389 9 17.9381L9 3.07112Z" fill="#EDEDED"/>
</g>
</svg>
