<svg width="67" height="67" viewBox="0 0 67 67" fill="none" xmlns="http://www.w3.org/2000/svg">
<path d="M33.5714 60.7385C29.8131 60.7385 26.261 60.0166 22.9152 58.5729C19.5693 57.1292 16.6475 55.1583 14.1495 52.6604C11.6516 50.1625 9.68079 47.2406 8.23704 43.8948C6.79329 40.5489 6.07141 36.9969 6.07141 33.2385C6.07141 29.3427 6.80474 25.7219 8.27141 22.376C9.73808 19.0302 11.7433 16.1198 14.287 13.6448C16.8308 11.1698 19.81 9.23332 23.2245 7.8354C26.6391 6.43748 30.2943 5.73853 34.1902 5.73853C37.811 5.73853 41.2485 6.34582 44.5027 7.5604C47.7568 8.77498 50.61 10.4594 53.062 12.6135C55.5141 14.7677 57.462 17.3229 58.9058 20.2792C60.3495 23.2354 61.0714 26.4781 61.0714 30.0073C61.0714 34.9573 59.6277 38.8646 56.7402 41.7292C53.8527 44.5937 50.0256 46.026 45.2589 46.026H40.1027C39.2777 46.026 38.5672 46.3469 37.9714 46.9885C37.3756 47.6302 37.0777 48.3406 37.0777 49.1198C37.0777 50.3573 37.41 51.4114 38.0745 52.2823C38.7391 53.1531 39.0714 54.1614 39.0714 55.3073C39.0714 57.0489 38.5902 58.3896 37.6277 59.3292C36.6652 60.2687 35.3131 60.7385 33.5714 60.7385ZM33.5714 56.6135C34.0756 56.6135 34.4308 56.5104 34.637 56.3042C34.8433 56.0979 34.9464 55.7656 34.9464 55.3073C34.9464 54.6656 34.6141 54.0698 33.9495 53.5198C33.285 52.9698 32.9527 51.7552 32.9527 49.876C32.9527 47.7677 33.6402 45.9114 35.0152 44.3073C36.3902 42.7031 38.1318 41.901 40.2402 41.901H45.2589C48.7422 41.901 51.561 40.8812 53.7152 38.8417C55.8693 36.8021 56.9464 33.8573 56.9464 30.0073C56.9464 23.9573 54.6547 19.0875 50.0714 15.3979C45.4881 11.7083 40.1943 9.86353 34.1902 9.86353C27.4985 9.86353 21.8266 12.1208 17.1745 16.6354C12.5225 21.15 10.1964 26.6844 10.1964 33.2385C10.1964 39.701 12.4766 45.2125 17.037 49.7729C21.5975 54.3333 27.1089 56.6135 33.5714 56.6135Z" fill="#121110"/>
<path d="M20.4152 33.7698C19.7277 34.4573 18.9256 34.801 18.0089 34.801C17.0922 34.801 16.2902 34.4573 15.6027 33.7698C14.9152 33.0823 14.5714 32.2802 14.5714 31.3635C14.5714 30.4469 14.9152 29.6448 15.6027 28.9573C16.2902 28.2698 17.0922 27.926 18.0089 27.926C18.9256 27.926 19.7277 28.2698 20.4152 28.9573C21.1027 29.6448 21.4464 30.4469 21.4464 31.3635C21.4464 32.2802 21.1027 33.0823 20.4152 33.7698Z" fill="#FD6B36"/>
<path d="M29.0777 22.0823C28.3902 22.7698 27.5881 23.1135 26.6714 23.1135C25.7547 23.1135 24.9527 22.7698 24.2652 22.0823C23.5777 21.3948 23.2339 20.5927 23.2339 19.676C23.2339 18.7594 23.5777 17.9573 24.2652 17.2698C24.9527 16.5823 25.7547 16.2385 26.6714 16.2385C27.5881 16.2385 28.3902 16.5823 29.0777 17.2698C29.7652 17.9573 30.1089 18.7594 30.1089 19.676C30.1089 20.5927 29.7652 21.3948 29.0777 22.0823Z" fill="#FD6B36"/>
<path d="M43.7902 22.0823C43.1027 22.7698 42.3006 23.1135 41.3839 23.1135C40.4672 23.1135 39.6652 22.7698 38.9777 22.0823C38.2902 21.3948 37.9464 20.5927 37.9464 19.676C37.9464 18.7594 38.2902 17.9573 38.9777 17.2698C39.6652 16.5823 40.4672 16.2385 41.3839 16.2385C42.3006 16.2385 43.1027 16.5823 43.7902 17.2698C44.4777 17.9573 44.8214 18.7594 44.8214 19.676C44.8214 20.5927 44.4777 21.3948 43.7902 22.0823Z" fill="#FD6B36"/>
<path d="M52.7964 33.7698C52.1089 34.4573 51.3068 34.801 50.3902 34.801C49.4735 34.801 48.6714 34.4573 47.9839 33.7698C47.2964 33.0823 46.9527 32.2802 46.9527 31.3635C46.9527 30.4469 47.2964 29.6448 47.9839 28.9573C48.6714 28.2698 49.4735 27.926 50.3902 27.926C51.3068 27.926 52.1089 28.2698 52.7964 28.9573C53.4839 29.6448 53.8277 30.4469 53.8277 31.3635C53.8277 32.2802 53.4839 33.0823 52.7964 33.7698Z" fill="#FD6B36"/>
</svg>
