<svg width="51" height="51" viewBox="0 0 51 51" fill="none" xmlns="http://www.w3.org/2000/svg">
<path d="M0.600098 50.2385V3.98853C0.600098 2.98853 0.975098 2.11353 1.7251 1.36353C2.4751 0.613525 3.3501 0.238525 4.3501 0.238525H46.8501C47.8501 0.238525 48.7251 0.613525 49.4751 1.36353C50.2251 2.11353 50.6001 2.98853 50.6001 3.98853V36.4885C50.6001 37.4885 50.2251 38.3635 49.4751 39.1135C48.7251 39.8635 47.8501 40.2385 46.8501 40.2385H10.6001L0.600098 50.2385ZM8.9751 36.4885H46.8501V3.98853H4.3501V41.4885L8.9751 36.4885Z" fill="#121110"/>
<path d="M17.1641 22.0198C16.6849 22.4989 16.0911 22.7385 15.3828 22.7385C14.6745 22.7385 14.0807 22.4989 13.6016 22.0198C13.1224 21.5406 12.8828 20.9469 12.8828 20.2385C12.8828 19.5302 13.1224 18.9364 13.6016 18.4573C14.0807 17.9781 14.6745 17.7385 15.3828 17.7385C16.0911 17.7385 16.6849 17.9781 17.1641 18.4573C17.6432 18.9364 17.8828 19.5302 17.8828 20.2385C17.8828 20.9469 17.6432 21.5406 17.1641 22.0198Z" fill="color"/>
<path d="M28.2266 22.0198C27.7474 22.4989 27.1536 22.7385 26.4453 22.7385C25.737 22.7385 25.1432 22.4989 24.6641 22.0198C24.1849 21.5406 23.9453 20.9469 23.9453 20.2385C23.9453 19.5302 24.1849 18.9364 24.6641 18.4573C25.1432 17.9781 25.737 17.7385 26.4453 17.7385C27.1536 17.7385 27.7474 17.9781 28.2266 18.4573C28.7057 18.9364 28.9453 19.5302 28.9453 20.2385C28.9453 20.9469 28.7057 21.5406 28.2266 22.0198Z" fill="color"/>
<path d="M38.8516 22.0198C38.3724 22.4989 37.7786 22.7385 37.0703 22.7385C36.362 22.7385 35.7682 22.4989 35.2891 22.0198C34.8099 21.5406 34.5703 20.9469 34.5703 20.2385C34.5703 19.5302 34.8099 18.9364 35.2891 18.4573C35.7682 17.9781 36.362 17.7385 37.0703 17.7385C37.7786 17.7385 38.3724 17.9781 38.8516 18.4573C39.3307 18.9364 39.5703 19.5302 39.5703 20.2385C39.5703 20.9469 39.3307 21.5406 38.8516 22.0198Z" fill="color"/>
</svg>
