<svg width="67" height="67" viewBox="0 0 67 67" fill="none" xmlns="http://www.w3.org/2000/svg">
<path d="M4.49561 62.3947V11.5197C4.49561 10.3854 4.89951 9.41426 5.70732 8.60645C6.51514 7.79864 7.48623 7.39473 8.62061 7.39473H41.6206C42.755 7.39473 43.7261 7.79864 44.5339 8.60645C45.3417 9.41426 45.7456 10.3854 45.7456 11.5197V15.576C44.9664 15.9885 44.2249 16.4697 43.5211 17.0197C42.8172 17.5697 42.1837 18.1885 41.6206 18.876V11.5197H8.62061V47.2697H41.6206V34.4135C42.1837 35.101 42.8172 35.7197 43.5211 36.2697C44.2249 36.8197 44.9664 37.301 45.7456 37.7135V47.2697C45.7456 48.4041 45.3417 49.3752 44.5339 50.183C43.7261 50.9908 42.755 51.3947 41.6206 51.3947H15.4956L4.49561 62.3947ZM15.4956 39.7072H26.4956V35.5822H15.4956V39.7072ZM15.4956 31.4572H34.7456V27.3322H15.4956V31.4572ZM15.4956 23.2072H34.7456V19.0822H15.4956V23.2072Z" fill="#121110"/>
<path d="M43.8206 31.4367C45.2873 32.9087 47.0721 33.6448 49.175 33.6448C51.278 33.6448 53.0655 32.9095 54.5375 31.4391C56.0096 29.9686 56.7456 28.183 56.7456 26.0823V8.20728H62.9331V4.08228H52.6206V19.276C51.9331 19.0469 51.3029 18.8635 50.73 18.726C50.1571 18.5885 49.6397 18.5198 49.1779 18.5198C47.0786 18.5198 45.2943 19.2531 43.8248 20.7198C42.3553 22.1864 41.6206 23.9712 41.6206 26.0742C41.6206 28.1771 42.3539 29.9646 43.8206 31.4367Z" fill="#FD6B36"/>
</svg>
