<svg width="51" height="51" viewBox="0 0 51 51" fill="none" xmlns="http://www.w3.org/2000/svg">
<path d="M3.90889 45.5307C2.87893 45.5307 1.99722 45.163 1.26376 44.4277C0.530303 43.6925 0.163574 42.8085 0.163574 41.776V4.22906C0.163574 3.19652 0.530303 2.3126 1.26376 1.57731C1.99722 0.842012 2.87893 0.474365 3.90889 0.474365H41.3621C42.392 0.474365 43.2738 0.842012 44.0072 1.57731C44.7407 2.3126 45.1074 3.19652 45.1074 4.22906V24.8173C44.5248 24.4835 43.911 24.2124 43.2659 24.0038C42.6209 23.7952 41.9863 23.6283 41.3621 23.5032V4.22906H3.90889V41.776H23.1973C23.3637 42.4435 23.5515 43.0937 23.7605 43.7267C23.9695 44.3597 24.2187 44.961 24.5081 45.5307H3.90889ZM3.90889 41.776V4.22906V23.5032V23.2528V41.776ZM10.1511 35.5182H23.3221C23.4886 34.8507 23.6758 34.204 23.8839 33.5782C24.092 32.9525 24.3625 32.3475 24.6954 31.7635H10.1511V35.5182ZM10.1511 24.8799H31.6242C32.2069 24.5878 32.7687 24.348 33.3096 24.1602C33.8506 23.9725 34.454 23.7952 35.1199 23.6283V21.1252H10.1511V24.8799ZM10.1511 14.2416H35.1199V10.4869H10.1511V14.2416Z" fill="#121110"/>
<path fill-rule="evenodd" clip-rule="evenodd" d="M30.5987 46.5295C32.8875 48.8449 35.6445 50.0026 38.8696 50.0026C42.0948 50.0026 44.8622 48.8449 47.1718 46.5295C49.4814 44.2141 50.6362 41.4711 50.6362 38.3004C50.6362 35.0282 49.4814 32.239 47.1718 29.9327C44.8622 27.6263 42.1052 26.4731 38.9009 26.4731C35.6541 26.4731 32.8865 27.6263 30.5981 29.9327C28.3097 32.239 27.1655 35.0282 27.1655 38.3004C27.1655 41.4711 28.3099 44.2141 30.5987 46.5295ZM38.9009 38.2379C40.0626 38.2379 41.0501 37.8299 41.8633 37.0139C42.6765 36.1979 43.0831 35.2071 43.0831 34.0414C43.0831 32.8758 42.6765 31.8966 41.8633 31.1039C41.0501 30.3113 40.0626 29.9149 38.9009 29.9149C37.7565 29.9149 36.7837 30.3186 35.9826 31.126C35.1816 31.9334 34.781 32.9138 34.781 34.0672C34.781 35.2206 35.1816 36.2041 35.9826 37.0176C36.7837 37.8311 37.7565 38.2379 38.9009 38.2379ZM42.771 45.5908C41.5642 46.2374 40.2697 46.5608 38.8875 46.5608C37.5053 46.5608 36.2152 46.2374 35.0173 45.5908C33.8194 44.9441 32.8459 44.0576 32.0969 42.9312C33.1788 42.3472 34.2816 41.8778 35.4052 41.5232C36.5288 41.1686 37.694 40.9913 38.9009 40.9913C40.1077 40.9913 41.2729 41.1686 42.3965 41.5232C43.5201 41.8778 44.6229 42.3472 45.7049 42.9312C44.9558 44.0576 43.9778 44.9441 42.771 45.5908Z" fill="white"/>
</svg>
