<svg width="66" height="67" viewBox="0 0 66 67" fill="none" xmlns="http://www.w3.org/2000/svg">
<path d="M33 60.7385C29.2417 60.7385 25.6896 60.0166 22.3438 58.5729C18.9979 57.1292 16.076 55.1583 13.5781 52.6604C11.0802 50.1625 9.10938 47.2406 7.66563 43.8948C6.22187 40.5489 5.5 36.9969 5.5 33.2385C5.5 29.4344 6.22187 25.8594 7.66563 22.5135C9.10938 19.1677 11.0802 16.2573 13.5781 13.7823C16.076 11.3073 18.9979 9.3479 22.3438 7.90415C25.6896 6.4604 29.2417 5.73853 33 5.73853C36.8042 5.73853 40.3792 6.4604 43.725 7.90415C47.0708 9.3479 49.9813 11.3073 52.4563 13.7823C54.9313 16.2573 56.8906 19.1677 58.3344 22.5135C59.7781 25.8594 60.5 29.4344 60.5 33.2385C60.5 36.9969 59.7781 40.5489 58.3344 43.8948C56.8906 47.2406 54.9313 50.1625 52.4563 52.6604C49.9813 55.1583 47.0708 57.1292 43.725 58.5729C40.3792 60.0166 36.8042 60.7385 33 60.7385ZM33 56.6135C39.5083 56.6135 45.0312 54.3333 49.5687 49.7729C54.1062 45.2125 56.375 39.701 56.375 33.2385C56.375 26.7302 54.1062 21.2073 49.5687 16.6698C45.0312 12.1323 39.5083 9.86353 33 9.86353C26.5375 9.86353 21.026 12.1323 16.4656 16.6698C11.9052 21.2073 9.625 26.7302 9.625 33.2385C9.625 39.701 11.9052 45.2125 16.4656 49.7729C21.026 54.3333 26.5375 56.6135 33 56.6135Z" fill="#121110"/>
<path fill-rule="evenodd" clip-rule="evenodd" d="M33 51.2385C42.9411 51.2385 51 43.1796 51 33.2385C51 23.2974 42.9411 15.2385 33 15.2385C23.0589 15.2385 15 23.2974 15 33.2385C15 43.1796 23.0589 51.2385 33 51.2385ZM33 54.2385C44.598 54.2385 54 44.8365 54 33.2385C54 21.6405 44.598 12.2385 33 12.2385C21.402 12.2385 12 21.6405 12 33.2385C12 44.8365 21.402 54.2385 33 54.2385Z" fill="#121110"/>
<path fill-rule="evenodd" clip-rule="evenodd" d="M19.9515 24.8424C20.7226 24.5395 21.5932 24.919 21.8961 25.69L23.683 30.2385H29.3229L31.6584 25.5677C31.9271 25.0303 32.4906 24.705 33.0904 24.7413C33.6902 24.7775 34.2105 25.1681 34.4126 25.734L36.0214 30.2385H40.9891L43.1395 25.6069C43.4883 24.8555 44.3803 24.5292 45.1317 24.878C45.8831 25.2269 46.2094 26.1188 45.8605 26.8702L44.2966 30.2385H46C46.8284 30.2385 47.5 30.9101 47.5 31.7385C47.5 32.567 46.8284 33.2385 46 33.2385H42.9038L39.3605 40.8702C39.1041 41.4224 38.5394 41.7648 37.9313 41.7369C37.3231 41.7091 36.7921 41.3164 36.5874 40.743L33.9072 33.2385H31.1771L27.3416 40.9093C27.0767 41.4392 26.5248 41.7635 25.933 41.737C25.3413 41.7106 24.8205 41.3383 24.6039 40.787L21.6384 33.2385H19C18.1716 33.2385 17.5 32.567 17.5 31.7385C17.5 30.9101 18.1716 30.2385 19 30.2385H20.4598L19.1039 26.787C18.801 26.0159 19.1805 25.1453 19.9515 24.8424ZM24.8616 33.2385L26.1646 36.5552L27.8229 33.2385H24.8616ZM32.6771 30.2385H32.8358L32.7696 30.0533L32.6771 30.2385ZM37.0928 33.2385L38.1812 36.2862L39.5962 33.2385H37.0928Z" fill="#FD6B36"/>
</svg>
