<svg width="67" height="67" viewBox="0 0 67 67" fill="none" xmlns="http://www.w3.org/2000/svg">
<path fill-rule="evenodd" clip-rule="evenodd" d="M18.9911 10.6361C18.9911 7.65511 21.4535 5.23853 24.4911 5.23853H42.3661C45.4037 5.23853 47.8661 7.65511 47.8661 10.6361V28.1783C47.8661 30.2105 46.7217 31.9804 45.0308 32.9012H55.4286C58.4662 32.9012 60.9286 35.3178 60.9286 38.2988V55.8409C60.9286 58.8219 58.4662 61.2385 55.4286 61.2385H37.5536C35.9109 61.2385 34.4364 60.5318 33.4286 59.4112C32.4208 60.5318 30.9463 61.2385 29.3036 61.2385H11.4286C8.39102 61.2385 5.92859 58.8219 5.92859 55.8409V38.2988C5.92859 35.3178 8.39102 32.9012 11.4286 32.9012H21.8263C20.1355 31.9804 18.9911 30.2105 18.9911 28.1783V10.6361ZM24.4911 9.28672H42.3661C43.1255 9.28672 43.7411 9.89086 43.7411 10.6361V28.1783C43.7411 28.9235 43.1255 29.5277 42.3661 29.5277H24.4911C23.7317 29.5277 23.1161 28.9235 23.1161 28.1783V10.6361C23.1161 9.89086 23.7317 9.28672 24.4911 9.28672ZM11.4286 36.9494H29.3036C30.063 36.9494 30.6786 37.5535 30.6786 38.2988V55.8409C30.6786 56.5862 30.063 57.1903 29.3036 57.1903H11.4286C10.6692 57.1903 10.0536 56.5862 10.0536 55.8409V38.2988C10.0536 37.5535 10.6692 36.9494 11.4286 36.9494ZM55.4286 36.9494H37.5536C36.7942 36.9494 36.1786 37.5535 36.1786 38.2988V55.8409C36.1786 56.5862 36.7942 57.1903 37.5536 57.1903H55.4286C56.188 57.1903 56.8036 56.5862 56.8036 55.8409V38.2988C56.8036 37.5535 56.188 36.9494 55.4286 36.9494Z" fill="#121110"/>
<path d="M35.366 13.2607L40.2458 26.3822H37.797L36.5278 22.944H31.362L30.0392 26.3822H27.5903L32.5775 13.2607H35.366ZM32.0948 20.9968H35.795L33.9717 16.085L32.0948 20.9968Z" fill="color"/>
<path d="M15.5192 53.3702V40.2487H20.2382C22.3832 40.2487 23.9026 41.7222 23.9026 43.8097C23.9026 44.6167 23.4736 45.5464 22.848 46.1954C23.0267 46.3007 23.2055 46.406 23.3485 46.5112C24.3316 47.1427 25.0287 48.4058 25.0287 49.5811C25.0287 51.7914 23.5093 53.3702 21.3643 53.3702H15.5192ZM17.8251 51.4055H21.0068C22.0615 51.4055 22.7407 50.6862 22.7407 49.5811C22.7407 48.3882 22.0615 47.5988 21.0068 47.5988H17.8251V51.4055ZM17.8251 45.6516H20.0773C21.0068 45.6166 21.6146 44.9675 21.6146 43.9851C21.6146 42.8975 20.9711 42.1958 19.9522 42.1958H17.8251V45.6516Z" fill="color"/>
<path d="M46.7042 53.5105C42.8253 53.5105 40.1083 50.7389 40.1083 46.8094C40.1083 42.8624 42.8253 40.0908 46.7042 40.1083C48.5275 40.1083 50.172 40.8626 51.3517 42.0555L49.8681 43.5992C49.1531 42.687 47.9555 42.073 46.6863 42.073C44.0945 42.073 42.4142 43.9325 42.4142 46.8094C42.4142 49.6688 44.0945 51.5283 46.6863 51.5283C48.0985 51.5283 49.1352 50.8441 49.7608 50.0723L51.3517 51.5458C50.172 52.7387 48.6883 53.5281 46.7042 53.5105Z" fill="color"/>
</svg>
