<svg width="24" height="24" viewBox="0 0 24 24" fill="none" xmlns="http://www.w3.org/2000/svg">
<mask id="mask0_523_10418" style="mask-type:alpha" maskUnits="userSpaceOnUse" x="0" y="0" width="24" height="24">
<rect x="24" y="24" width="24" height="24" transform="rotate(180 24 24)" fill="#D9D9D9"/>
</mask>
<g mask="url(#mask0_523_10418)">
<path d="M11.9992 9.04961C12.1326 9.04961 12.2576 9.07044 12.3742 9.11211C12.4909 9.15378 12.5992 9.22461 12.6992 9.32461L17.2992 13.9246C17.4826 14.1079 17.5742 14.3413 17.5742 14.6246C17.5742 14.9079 17.4826 15.1413 17.2992 15.3246C17.1159 15.5079 16.8826 15.5996 16.5992 15.5996C16.3159 15.5996 16.0826 15.5079 15.8992 15.3246L11.9992 11.4246L8.09922 15.3246C7.91588 15.5079 7.68255 15.5996 7.39922 15.5996C7.11588 15.5996 6.88255 15.5079 6.69922 15.3246C6.51589 15.1413 6.42422 14.9079 6.42422 14.6246C6.42422 14.3413 6.51589 14.1079 6.69922 13.9246L11.2992 9.32461C11.3992 9.22461 11.5076 9.15378 11.6242 9.11211C11.7409 9.07044 11.8659 9.04961 11.9992 9.04961Z" fill="#FD6B36"/>
</g>
</svg>
