<svg width="67" height="67" viewBox="0 0 67 67" fill="none" xmlns="http://www.w3.org/2000/svg">
<path fill-rule="evenodd" clip-rule="evenodd" d="M4.96533 23.3159C5.33683 22.9072 5.96928 22.8771 6.37794 23.2486L11.8779 28.2486C12.2866 28.6201 12.3167 29.2525 11.9452 29.6612C11.5737 30.0699 10.9413 30.1 10.5326 29.7285L5.03259 24.7285C4.62394 24.357 4.59382 23.7245 4.96533 23.3159ZM4.70527 33.9885C4.70527 33.4362 5.15298 32.9885 5.70527 32.9885H11.2053C11.7576 32.9885 12.2053 33.4362 12.2053 33.9885C12.2053 34.5408 11.7576 34.9885 11.2053 34.9885H5.70527C5.15298 34.9885 4.70527 34.5408 4.70527 33.9885ZM12.0832 39.0097C12.3476 39.4945 12.169 40.102 11.6841 40.3664L6.18412 43.3664C5.69927 43.6309 5.09183 43.4522 4.82737 42.9674C4.56291 42.4825 4.74157 41.8751 5.22642 41.6106L10.7264 38.6106C11.2113 38.3462 11.8187 38.5248 12.0832 39.0097Z" fill="color"/>
<path fill-rule="evenodd" clip-rule="evenodd" d="M61.4582 23.5096C61.7226 23.9945 61.544 24.6019 61.0591 24.8664L55.5591 27.8664C55.0743 28.1308 54.4668 27.9522 54.2024 27.4673C53.9379 26.9825 54.1166 26.375 54.6014 26.1106L60.1014 23.1106C60.5863 22.8461 61.1937 23.0248 61.4582 23.5096ZM60.5803 33.4885L55.0803 33.4885C54.528 33.4885 54.0803 33.0408 54.0803 32.4885C54.0803 31.9362 54.528 31.4885 55.0803 31.4885L60.5803 31.4885C61.1326 31.4885 61.5803 31.9362 61.5803 32.4885C61.5803 33.0408 61.1326 33.4885 60.5803 33.4885ZM54.3403 36.8158C54.7118 36.4071 55.3443 36.377 55.7529 36.7485L61.2529 41.7485C61.6616 42.12 61.6917 42.7525 61.3202 43.1611C60.9487 43.5698 60.3163 43.5999 59.9076 43.2284L54.4076 38.2284C53.9989 37.8569 53.9688 37.2245 54.3403 36.8158Z" fill="color"/>
<path d="M33.1428 60.7385C31.9053 60.7385 30.8167 60.4406 29.8771 59.8448C28.9376 59.2489 28.3303 58.4239 28.0553 57.3698H27.0928C25.9928 57.3698 25.0303 56.9573 24.2053 56.1323C23.3803 55.3073 22.9678 54.3448 22.9678 53.2448V43.4135C19.9428 41.4427 17.5594 38.9219 15.8178 35.851C14.0761 32.7802 13.2053 29.3885 13.2053 25.676C13.2053 20.1302 15.1417 15.4208 19.0146 11.5479C22.8876 7.67498 27.5969 5.73853 33.1428 5.73853C38.6886 5.73853 43.398 7.67498 47.2709 11.5479C51.1438 15.4208 53.0803 20.1302 53.0803 25.676C53.0803 29.3885 52.2094 32.7802 50.4678 35.851C48.7261 38.9219 46.3428 41.4427 43.3178 43.4135V53.2448C43.3178 54.3448 42.9053 55.3073 42.0803 56.1323C41.2553 56.9573 40.2928 57.3698 39.1928 57.3698H38.2303C37.9553 58.4239 37.348 59.2489 36.4084 59.8448C35.4688 60.4406 34.3803 60.7385 33.1428 60.7385ZM27.0928 53.2448H39.1928V50.2198H27.0928V53.2448ZM27.0928 47.4698H39.1928V44.7198H27.0928V47.4698ZM26.474 40.5948H31.5615V31.176L25.2365 24.851L27.3678 22.7198L33.1428 28.4948L38.9178 22.7198L41.049 24.851L34.724 31.176V40.5948H39.8115C42.5615 39.3114 44.773 37.3177 46.4459 34.6135C48.1188 31.9094 48.9553 28.9302 48.9553 25.676C48.9553 21.2302 47.4313 17.4833 44.3834 14.4354C41.3355 11.3875 37.5886 9.86353 33.1428 9.86353C28.6969 9.86353 24.9501 11.3875 21.9021 14.4354C18.8542 17.4833 17.3303 21.2302 17.3303 25.676C17.3303 28.9302 18.1667 31.9094 19.8396 34.6135C21.5126 37.3177 23.724 39.3114 26.474 40.5948Z" fill="#121110"/>
</svg>
