<svg width="51" height="51" viewBox="0 0 51 51" fill="none" xmlns="http://www.w3.org/2000/svg">
<path d="M36.4497 50.2385V44.8218C34.1997 44.0996 32.2935 42.8844 30.731 41.176C29.1685 39.4677 28.2205 37.4885 27.8872 35.2385H31.6997C32.1164 37.0719 33.033 38.5719 34.4497 39.7385C35.8664 40.9052 37.5747 41.4885 39.5747 41.4885H47.0747C47.9427 41.4885 48.6806 41.7923 49.2883 42.4C49.8959 43.0076 50.1997 43.7455 50.1997 44.6135V50.2385H36.4497ZM43.322 38.051C42.0321 38.051 40.9289 37.5918 40.0122 36.6733C39.0955 35.7547 38.6372 34.6506 38.6372 33.3608C38.6372 32.0709 39.0965 30.9677 40.015 30.051C40.9335 29.1344 42.0377 28.676 43.3275 28.676C44.6173 28.676 45.7205 29.1353 46.6372 30.0538C47.5539 30.9723 48.0122 32.0765 48.0122 33.3663C48.0122 34.6561 47.553 35.7594 46.6345 36.676C45.7159 37.5927 44.6117 38.051 43.322 38.051ZM0.199707 21.801V16.176C0.199707 15.308 0.512207 14.5701 1.13721 13.9625C1.76221 13.3548 2.49137 13.051 3.32471 13.051H10.8247C12.8247 13.051 14.533 12.4677 15.9497 11.301C17.3664 10.1344 18.283 8.63436 18.6997 6.80103H22.5122C22.1789 9.05103 21.231 11.0302 19.6685 12.7385C18.106 14.4469 16.1997 15.6621 13.9497 16.3843V21.801H0.199707ZM7.07196 9.61353C5.78212 9.61353 4.67887 9.15428 3.76221 8.23578C2.84554 7.31723 2.38721 6.21307 2.38721 4.92327C2.38721 3.63344 2.84646 2.53019 3.76496 1.61353C4.6835 0.696859 5.78767 0.238525 7.07746 0.238525C8.36729 0.238525 9.47054 0.697776 10.3872 1.61628C11.3039 2.53482 11.7622 3.63898 11.7622 4.92878C11.7622 6.21861 11.303 7.32186 10.3845 8.23853C9.46591 9.15519 8.36175 9.61353 7.07196 9.61353Z" fill="#1C1B1F"/>
<path d="M23.6372 17.676C20.0122 21.301 18.1997 25.7385 18.1997 30.9885H21.9497C21.9497 26.7802 23.3976 23.2281 26.2935 20.3323C29.1893 17.4364 32.7414 15.9885 36.9497 15.9885V12.2385C31.6997 12.2385 27.2622 14.051 23.6372 17.676Z" fill="color"/>
<path d="M28.9903 23.0198C26.7966 25.2073 25.6997 27.8635 25.6997 30.9885H29.4497C29.4497 28.3885 30.908 26.3635 31.6372 25.676C33.0955 24.2177 34.8664 23.4885 36.9497 23.4885V19.7385C33.8372 19.7385 31.1841 20.8323 28.9903 23.0198Z" fill="color"/>
</svg>
