<svg width="58" height="45" viewBox="0 0 58 45" fill="none" xmlns="http://www.w3.org/2000/svg">
<path d="M3.625 44.2785C2.65833 44.2785 1.8125 43.9112 1.0875 43.1765C0.3625 42.4418 0 41.5847 0 40.6052V3.87182C0 2.89226 0.3625 2.03515 1.0875 1.30049C1.8125 0.56582 2.65833 0.198486 3.625 0.198486H54.375C55.3417 0.198486 56.1875 0.56582 56.9125 1.30049C57.6375 2.03515 58 2.89226 58 3.87182V40.6052C58 41.5847 57.6375 42.4418 56.9125 43.1765C56.1875 43.9112 55.3417 44.2785 54.375 44.2785H3.625ZM35.7062 40.6052H54.375V3.87182H3.625V40.6052H4.04792C5.82014 37.7889 8.08576 35.5645 10.8448 33.9319C13.6038 32.2993 16.6146 31.483 19.8771 31.483C23.1396 31.483 26.1503 32.2993 28.9094 33.9319C31.6684 35.5645 33.934 37.7889 35.7062 40.6052ZM19.8771 27.1363C21.891 27.1363 23.6028 26.422 25.0125 24.9935C26.4222 23.565 27.1271 21.8303 27.1271 19.7896C27.1271 17.7489 26.4222 16.0142 25.0125 14.5857C23.6028 13.1572 21.891 12.4429 19.8771 12.4429C17.8632 12.4429 16.1514 13.1572 14.7417 14.5857C13.3319 16.0142 12.6271 17.7489 12.6271 19.7896C12.6271 21.8303 13.3319 23.565 14.7417 24.9935C16.1514 26.422 17.8632 27.1363 19.8771 27.1363ZM8.63958 40.6052H31.1146C29.6805 38.8797 27.9827 37.5402 26.0213 36.5867C24.0599 35.6332 22.0118 35.1564 19.8771 35.1564C17.7424 35.1564 15.6983 35.636 13.7448 36.5951C11.7913 37.5542 10.0896 38.8909 8.63958 40.6052ZM19.8771 23.4629C18.85 23.4629 17.9891 23.1109 17.2943 22.4069C16.5995 21.7028 16.2521 20.8304 16.2521 19.7896C16.2521 18.7488 16.5995 17.8764 17.2943 17.1723C17.9891 16.4683 18.85 16.1163 19.8771 16.1163C20.9042 16.1163 21.7651 16.4683 22.4599 17.1723C23.1547 17.8764 23.5021 18.7488 23.5021 19.7896C23.5021 20.8304 23.1547 21.7028 22.4599 22.4069C21.7651 23.1109 20.9042 23.4629 19.8771 23.4629Z" fill="#121110"/>
<path d="M44.0741 21.7875H41.6574V17.1958L37.7303 19.461L36.522 17.3795L40.4491 15.053L36.522 12.7266L37.7303 10.645L41.6574 12.9103V8.3186H44.0741V12.9103L48.0011 10.645L49.2095 12.7266L45.2824 15.053L49.2095 17.3795L48.0011 19.461L44.0741 17.1958V21.7875Z" fill="color"/>
</svg>
