<svg width="67" height="67" viewBox="0 0 67 67" fill="none" xmlns="http://www.w3.org/2000/svg">
<path d="M17.9071 45.9917C20.3622 45.9917 22.752 46.2782 25.0766 46.8511C27.4011 47.424 29.6863 48.2834 31.9321 49.4292V20.0729C29.8696 18.6979 27.6325 17.6323 25.2208 16.8761C22.8092 16.1198 20.3713 15.7417 17.9071 15.7417C16.1655 15.7417 14.4582 15.9594 12.7852 16.3948C11.1123 16.8302 9.42795 17.3688 7.73212 18.0104V47.8479C9.15295 47.2063 10.7686 46.7365 12.579 46.4386C14.3894 46.1407 16.1655 45.9917 17.9071 45.9917ZM36.0571 49.4292C38.3488 48.2834 40.5946 47.424 42.7946 46.8511C44.9946 46.2782 47.3321 45.9917 49.8071 45.9917C51.5488 45.9917 53.3477 46.1292 55.204 46.4042C57.0602 46.6792 58.653 47.0459 59.9821 47.5042V18.0104C58.4238 17.2313 56.7779 16.6584 55.0444 16.2917C53.3108 15.925 51.5651 15.7417 49.8071 15.7417C47.3321 15.7417 44.9373 16.1198 42.6227 16.8761C40.3082 17.6323 38.1196 18.6979 36.0571 20.0729V49.4292ZM33.9946 54.8605C33.6491 54.8605 33.3221 54.8261 33.0136 54.7573C32.7051 54.6886 32.4363 54.5625 32.2071 54.3792C30.053 53.05 27.7648 52.0188 25.3426 51.2854C22.9204 50.5521 20.4419 50.1855 17.9071 50.1855C16.2325 50.1855 14.5878 50.3917 12.9731 50.8042C11.3583 51.2167 9.74878 51.7209 8.14462 52.3167C7.08587 52.8209 6.06493 52.7521 5.0818 52.1105C4.09868 51.4688 3.60712 50.5521 3.60712 49.3605V17.5292C3.60712 16.8417 3.76753 16.2115 4.08837 15.6386C4.4092 15.0657 4.89045 14.6188 5.53212 14.2979C7.45712 13.3813 9.45992 12.7052 11.5405 12.2698C13.6211 11.8344 15.7433 11.6167 17.9071 11.6167C20.7946 11.6167 23.6019 12.0063 26.329 12.7854C29.0561 13.5646 31.6113 14.7563 33.9946 16.3604C36.3321 14.7563 38.8415 13.5646 41.5227 12.7854C44.204 12.0063 46.9655 11.6167 49.8071 11.6167C51.9552 11.6167 54.0621 11.8344 56.1276 12.2698C58.1931 12.7052 60.1884 13.3813 62.1134 14.2979C62.755 14.6188 63.2477 15.0657 63.5915 15.6386C63.9352 16.2115 64.1071 16.8417 64.1071 17.5292V49.3605C64.1071 50.6389 63.5915 51.6117 62.5602 52.2787C61.529 52.9457 60.5092 52.9584 59.5009 52.3167C57.9425 51.675 56.356 51.1594 54.7412 50.7698C53.1264 50.3802 51.4817 50.1855 49.8071 50.1855C47.3195 50.1855 44.8872 50.5521 42.5102 51.2854C40.1331 52.0188 37.8904 53.05 35.7821 54.3792C35.5529 54.5625 35.2841 54.6886 34.9756 54.7573C34.6671 54.8261 34.3401 54.8605 33.9946 54.8605Z" fill="#121110"/>
<path d="M39.6338 24.0371C39.4493 24.304 39.3571 24.5639 39.3571 24.8167C39.3571 25.4584 39.5519 25.9052 39.9415 26.1573C40.3311 26.4094 40.8467 26.4209 41.4884 26.1917C42.68 25.6875 43.8946 25.3094 45.1321 25.0573C46.3696 24.8052 47.653 24.6792 48.9821 24.6792C49.8988 24.6792 50.7834 24.7365 51.6359 24.8511C52.4884 24.9657 53.2996 25.1375 54.0696 25.3667C54.5738 25.5042 54.9977 25.4354 55.3415 25.1604C55.6852 24.8855 55.8571 24.4852 55.8571 23.9597C55.8571 23.6506 55.7425 23.3724 55.5134 23.1251C55.2842 22.8778 55.0321 22.7084 54.7571 22.6167C53.8405 22.3875 52.8993 22.2157 51.9336 22.1011C50.9678 21.9865 49.9897 21.9292 48.9992 21.9292C47.4144 21.9292 45.9039 22.0667 44.4677 22.3417C43.0315 22.6167 41.6259 23.0063 40.2509 23.5105C40.0239 23.5947 39.8182 23.7703 39.6338 24.0371Z" fill="#F7F7F7"/>
<path d="M39.6338 39.1212C39.4493 39.4021 39.3571 39.6756 39.3571 39.9417C39.3571 40.5834 39.5519 41.0188 39.9415 41.248C40.3311 41.4771 40.8467 41.4771 41.4884 41.248C42.68 40.7438 43.8946 40.3771 45.1321 40.1479C46.3696 39.9188 47.653 39.8042 48.9821 39.8042C49.8988 39.8042 50.7834 39.8615 51.6359 39.9761C52.4884 40.0907 53.2996 40.2625 54.0696 40.4917C54.5738 40.6292 54.9977 40.5604 55.3415 40.2854C55.6852 40.0105 55.8571 39.6102 55.8571 39.0847C55.8571 38.7756 55.7425 38.4974 55.5134 38.2501C55.2842 38.0028 55.0321 37.8334 54.7571 37.7417C53.8405 37.5125 52.8993 37.3407 51.9336 37.2261C50.9678 37.1115 49.9897 37.0542 48.9992 37.0542C47.4144 37.0542 45.9039 37.1802 44.4677 37.4323C43.0315 37.6844 41.6259 38.0625 40.2509 38.5667C40.0239 38.6554 39.8182 38.8402 39.6338 39.1212Z" fill="#F7F7F7"/>
<path d="M39.6338 31.5996C39.4493 31.8665 39.3571 32.1264 39.3571 32.3792C39.3571 33.0209 39.5519 33.4677 39.9415 33.7198C40.3311 33.9719 40.8467 33.9834 41.4884 33.7542C42.68 33.25 43.8946 32.8719 45.1321 32.6198C46.3696 32.3677 47.653 32.2417 48.9821 32.2417C49.8988 32.2417 50.7834 32.299 51.6359 32.4136C52.4884 32.5282 53.2996 32.7 54.0696 32.9292C54.5738 33.0667 54.9977 32.9979 55.3415 32.7229C55.6852 32.448 55.8571 32.0477 55.8571 31.5222C55.8571 31.2131 55.7425 30.9349 55.5134 30.6876C55.2842 30.4403 55.0321 30.2709 54.7571 30.1792C53.8405 29.95 52.8993 29.7782 51.9336 29.6636C50.9678 29.549 49.9897 29.4917 48.9992 29.4917C47.4144 29.4917 45.9039 29.6292 44.4677 29.9042C43.0315 30.1792 41.6259 30.5688 40.2509 31.073C40.0239 31.1572 39.8182 31.3328 39.6338 31.5996Z" fill="#F7F7F7"/>
</svg>
