<svg width="10" height="16" viewBox="0 0 10 16" fill="none" xmlns="http://www.w3.org/2000/svg">
<path d="M6.97917 8L1.10417 2.125C0.909723 1.93056 0.8125 1.69445 0.8125 1.41667C0.8125 1.13889 0.909722 0.902779 1.10417 0.708335C1.29861 0.51389 1.53472 0.416668 1.8125 0.416668C2.09028 0.416668 2.32639 0.51389 2.52083 0.708334L8.75 6.9375C8.90278 7.09028 9.01389 7.25694 9.08334 7.4375C9.15278 7.61806 9.1875 7.80556 9.1875 8C9.1875 8.19444 9.15278 8.38195 9.08334 8.5625C9.01389 8.74306 8.90278 8.90972 8.75 9.0625L2.52084 15.2917C2.32639 15.4861 2.09028 15.5833 1.8125 15.5833C1.53472 15.5833 1.29861 15.4861 1.10417 15.2917C0.909725 15.0972 0.812503 14.8611 0.812502 14.5833C0.812502 14.3056 0.909725 14.0694 1.10417 13.875L6.97917 8Z" fill="#121110"/>
</svg>
