<svg width="10" height="16" viewBox="0 0 10 16" fill="none" xmlns="http://www.w3.org/2000/svg">
<path d="M3.02083 8L8.89583 13.875C9.09028 14.0694 9.1875 14.3056 9.1875 14.5833C9.1875 14.8611 9.09028 15.0972 8.89583 15.2917C8.70139 15.4861 8.46528 15.5833 8.1875 15.5833C7.90972 15.5833 7.67361 15.4861 7.47917 15.2917L1.25 9.0625C1.09722 8.90973 0.98611 8.74306 0.916665 8.5625C0.847221 8.38195 0.812499 8.19445 0.812499 8C0.812499 7.80556 0.847221 7.61806 0.916665 7.4375C0.98611 7.25695 1.09722 7.09028 1.25 6.9375L7.47917 0.708336C7.67361 0.513891 7.90972 0.416669 8.1875 0.416669C8.46528 0.416669 8.70139 0.513891 8.89583 0.708336C9.09028 0.902781 9.1875 1.13889 9.1875 1.41667C9.1875 1.69445 9.09028 1.93056 8.89583 2.125L3.02083 8Z" fill="black"/>
</svg>
