<svg xmlns="http://www.w3.org/2000/svg" width="16" height="18" viewBox="0 0 16 18" fill="none">
  <path d="M8.125 15.8778L3.54511 17.8155C2.84985 18.1086 2.18936 18.0525 1.56363 17.6471C0.937876 17.2418 0.625 16.6717 0.625 15.9369V2.05583C0.625 1.48136 0.826924 0.995103 1.23077 0.597062C1.63462 0.199021 2.12797 0 2.71081 0H13.5392C14.122 0 14.6154 0.199021 15.0192 0.597062C15.4231 0.995103 15.625 1.48136 15.625 2.05583V15.9369C15.625 16.6717 15.3121 17.2418 14.6864 17.6471C14.0606 18.0525 13.4001 18.1086 12.7049 17.8155L8.125 15.8778ZM8.125 13.9883L13.395 16.2256C13.5133 16.2766 13.6261 16.2657 13.7334 16.1928C13.8406 16.1199 13.8943 16.0214 13.8943 15.8975V2.05583C13.8943 1.96833 13.8573 1.88813 13.7833 1.81521C13.7093 1.74231 13.628 1.70586 13.5392 1.70586H2.71081C2.62205 1.70586 2.54067 1.74231 2.46669 1.81521C2.39273 1.88813 2.35575 1.96833 2.35575 2.05583V15.8975C2.35575 16.0214 2.40937 16.1199 2.51662 16.1928C2.62389 16.2657 2.7367 16.2766 2.85505 16.2256L8.125 13.9883Z" fill="#A0A09F"/>
</svg>