<svg width="1009" height="92" viewBox="0 0 1009 92" fill="none" xmlns="http://www.w3.org/2000/svg">
<g filter="url(#filter0_d_23_75)">
<path fill-rule="evenodd" clip-rule="evenodd" d="M6 43C6 54.1896 10.5946 64.306 18 71.5657V72H18.4499C25.6232 78.8168 35.3231 83 46 83C56.6769 83 66.3768 78.8168 73.5501 72H979C992.255 72 1003 61.2548 1003 48V39C1003 25.7452 992.255 15 979 15H74.5657C67.306 7.59455 57.1896 3 46 3C23.9086 3 6 20.9086 6 43ZM46.5 72C57.3557 72 66.7938 65.9306 71.6061 57H974.5C981.956 57 988 50.9558 988 43.5C988 36.0442 981.956 30 974.5 30H71.6061C66.7938 21.0694 57.3557 15 46.5 15C30.7599 15 18 27.7599 18 43.5C18 59.2401 30.7599 72 46.5 72Z" fill="#F8F8F8"/>
</g>
<defs>
<filter id="filter0_d_23_75" x="0" y="0" width="1009" height="92" filterUnits="userSpaceOnUse" color-interpolation-filters="sRGB">
<feFlood flood-opacity="0" result="BackgroundImageFix"/>
<feColorMatrix in="SourceAlpha" type="matrix" values="0 0 0 0 0 0 0 0 0 0 0 0 0 0 0 0 0 0 127 0" result="hardAlpha"/>
<feOffset dy="3"/>
<feGaussianBlur stdDeviation="3"/>
<feComposite in2="hardAlpha" operator="out"/>
<feColorMatrix type="matrix" values="0 0 0 0 0 0 0 0 0 0 0 0 0 0 0 0 0 0 0.25 0"/>
<feBlend mode="normal" in2="BackgroundImageFix" result="effect1_dropShadow_23_75"/>
<feBlend mode="normal" in="SourceGraphic" in2="effect1_dropShadow_23_75" result="shape"/>
</filter>
</defs>
</svg>
