<svg width="19" height="24" viewBox="0 0 19 24" fill="none" xmlns="http://www.w3.org/2000/svg">
<path d="M9.5 20.7883L3.6988 23.2643C2.81815 23.6388 1.98152 23.567 1.18893 23.0491C0.396309 22.5312 0 21.8028 0 20.8638V3.12689C0 2.39285 0.25577 1.77152 0.767311 1.26291C1.27885 0.754304 1.90376 0.5 2.64203 0.5H16.358C17.0962 0.5 17.7211 0.754304 18.2327 1.26291C18.7442 1.77152 19 2.39285 19 3.12689V20.8638C19 21.8028 18.6037 22.5312 17.8111 23.0491C17.0185 23.567 16.1818 23.6388 15.3012 23.2643L9.5 20.7883ZM9.5 18.3739L16.1753 21.2327C16.3252 21.2979 16.4681 21.2839 16.6039 21.1908C16.7398 21.0976 16.8077 20.9718 16.8077 20.8135V3.12689C16.8077 3.01509 16.7609 2.91261 16.6672 2.81943C16.5735 2.72629 16.4704 2.67971 16.358 2.67971H2.64203C2.52959 2.67971 2.42652 2.72629 2.33281 2.81943C2.23912 2.91261 2.19228 3.01509 2.19228 3.12689V20.8135C2.19228 20.9718 2.2602 21.0976 2.39605 21.1908C2.53193 21.2839 2.67482 21.2979 2.82473 21.2327L9.5 18.3739Z" fill="#A0A09F"/>
</svg>
