<svg xmlns="http://www.w3.org/2000/svg" width="18" height="18" viewBox="0 0 18 18" fill="none">
  <mask id="mask0_1372_3017" style="mask-type:alpha" maskUnits="userSpaceOnUse" x="0" y="0" width="18" height="18">
    <rect width="18" height="18" fill="#D9D9D9"/>
  </mask>
  <g mask="url(#mask0_1372_3017)">
    <path d="M6.60005 12.6H3.15005C2.7788 12.6 2.46099 12.4678 2.19661 12.2033C1.93224 11.9387 1.80005 11.6207 1.80005 11.2493V3.14474C1.80005 2.77328 1.93224 2.4563 2.19661 2.1938C2.46099 1.9313 2.7788 1.80005 3.15005 1.80005H14.85C15.2213 1.80005 15.5391 1.93231 15.8035 2.19684C16.0679 2.46136 16.2 2.77935 16.2 3.1508V11.2554C16.2 11.6268 16.0679 11.9438 15.8035 12.2063C15.5391 12.4688 15.2213 12.6 14.85 12.6H11.4L9.56255 15.3563C9.42644 15.5563 9.23929 15.6563 9.0011 15.6563C8.7629 15.6563 8.57505 15.5563 8.43755 15.3563L6.60005 12.6Z" fill="#FD6B36"/>
  </g>
</svg>