<svg xmlns="http://www.w3.org/2000/svg" width="18" height="18" viewBox="0 0 18 18" fill="none">
  <mask id="mask0_1372_3025" style="mask-type:alpha" maskUnits="userSpaceOnUse" x="0" y="0" width="18" height="18">
    <rect width="18" height="18" fill="#D9D9D9"/>
  </mask>
  <g mask="url(#mask0_1372_3025)">
    <path d="M9.00005 14.8125C8.83755 14.8125 8.67817 14.7844 8.52192 14.7281C8.36567 14.6719 8.2188 14.5813 8.0813 14.4563L6.97505 13.4438C5.61255 12.2313 4.40942 11.0469 3.36567 9.89063C2.32192 8.73438 1.80005 7.475 1.80005 6.1125C1.80005 5.0125 2.17505 4.09375 2.92505 3.35625C3.67505 2.61875 4.6063 2.25 5.7188 2.25C6.3563 2.25 6.95942 2.38438 7.52817 2.65313C8.09692 2.92188 8.58755 3.30625 9.00005 3.80625C9.43755 3.30625 9.93442 2.92188 10.4907 2.65313C11.0469 2.38438 11.6438 2.25 12.2813 2.25C13.3938 2.25 14.325 2.61875 15.075 3.35625C15.825 4.09375 16.2 5.0125 16.2 6.1125C16.2 7.475 15.6782 8.73438 14.6344 9.89063C13.5907 11.0469 12.3875 12.2313 11.025 13.4438L9.9188 14.4563C9.7813 14.5813 9.63442 14.6719 9.47817 14.7281C9.32192 14.7844 9.16255 14.8125 9.00005 14.8125Z" fill="#FD6B36"/>
  </g>
</svg>