<svg xmlns="http://www.w3.org/2000/svg" width="16" height="23" viewBox="0 0 16 23" fill="none">
<path d="M8.37479 19.2275L8 19.076L7.62521 19.2275L2.92861 21.1261C2.92805 21.1263 2.92749 21.1266 2.92694 21.1268C2.46506 21.3111 2.06801 21.2726 1.62436 20.9745C1.18488 20.6793 1 20.3268 1 19.8213V3.35459C1 2.95011 1.13011 2.6387 1.40711 2.3617C1.68411 2.0847 1.99552 1.95459 2.4 1.95459H13.6C14.0045 1.95459 14.3159 2.0847 14.5929 2.3617L15.3 1.65459L14.5929 2.3617C14.8699 2.6387 15 2.95011 15 3.35459V19.8213C15 20.3268 14.8151 20.6793 14.3756 20.9745C13.932 21.2726 13.535 21.3111 13.0731 21.1268C13.0726 21.1266 13.072 21.1263 13.0714 21.1261L8.37479 19.2275Z" fill="#D0CFCF" stroke="white" stroke-width="2"/>
</svg>