<svg xmlns="http://www.w3.org/2000/svg" width="16" height="18" viewBox="0 0 16 18" fill="none">
<path d="M8 15.8778L3.42011 17.8155C2.72485 18.1086 2.06436 18.0525 1.43863 17.6471C0.812876 17.2418 0.5 16.6717 0.5 15.9369V2.05583C0.5 1.48136 0.701924 0.995103 1.10577 0.597062C1.50962 0.199021 2.00297 0 2.58581 0H13.4142C13.997 0 14.4904 0.199021 14.8942 0.597062C15.2981 0.995103 15.5 1.48136 15.5 2.05583V15.9369C15.5 16.6717 15.1871 17.2418 14.5614 17.6471C13.9356 18.0525 13.2751 18.1086 12.5799 17.8155L8 15.8778ZM8 13.9883L13.27 16.2256C13.3883 16.2766 13.5011 16.2657 13.6084 16.1928C13.7156 16.1199 13.7693 16.0214 13.7693 15.8975V2.05583C13.7693 1.96833 13.7323 1.88813 13.6583 1.81521C13.5843 1.74231 13.503 1.70586 13.4142 1.70586H2.58581C2.49705 1.70586 2.41567 1.74231 2.34169 1.81521C2.26773 1.88813 2.23075 1.96833 2.23075 2.05583V15.8975C2.23075 16.0214 2.28437 16.1199 2.39162 16.1928C2.49889 16.2657 2.6117 16.2766 2.73005 16.2256L8 13.9883Z" fill="#A0A09F"/>
</svg>