<svg width="20" height="23" viewBox="0 0 20 23" fill="none" xmlns="http://www.w3.org/2000/svg">
<path d="M2.19248 22.3891C1.60316 22.3891 1.10433 22.1849 0.695996 21.7766C0.287663 21.3683 0.0834961 20.8694 0.0834961 20.2801V4.66481C0.0834961 4.07549 0.287663 3.57666 0.695996 3.16833C1.10433 2.75999 1.60316 2.55583 2.19248 2.55583H3.80788V0.985291C3.80788 0.729538 3.89351 0.516028 4.06478 0.344762C4.23602 0.173514 4.44953 0.0878906 4.70531 0.0878906C4.96106 0.0878906 5.17457 0.173514 5.34583 0.344762C5.51708 0.516028 5.60271 0.729538 5.60271 0.985291V2.55583H14.4424V0.962862C14.4424 0.714576 14.5262 0.506675 14.6937 0.339161C14.8612 0.171647 15.0691 0.0878906 15.3174 0.0878906C15.5657 0.0878906 15.7736 0.171647 15.9411 0.339161C16.1086 0.506675 16.1924 0.714576 16.1924 0.962862V2.55583H17.8078C18.3971 2.55583 18.8959 2.75999 19.3043 3.16833C19.7126 3.57666 19.9168 4.07549 19.9168 4.66481V20.2801C19.9168 20.8694 19.7126 21.3683 19.3043 21.7766C18.8959 22.1849 18.3971 22.3891 17.8078 22.3891H2.19248ZM2.19248 20.6391H17.8078C17.8975 20.6391 17.9798 20.6017 18.0546 20.527C18.1294 20.4522 18.1668 20.3699 18.1668 20.2801V9.33148H1.83347V20.2801C1.83347 20.3699 1.87086 20.4522 1.94564 20.527C2.02044 20.6017 2.10272 20.6391 2.19248 20.6391ZM1.83347 7.58151H18.1668V4.66481C18.1668 4.57506 18.1294 4.49278 18.0546 4.41797C17.9798 4.34319 17.8975 4.3058 17.8078 4.3058H2.19248C2.10272 4.3058 2.02044 4.34319 1.94564 4.41797C1.87086 4.49278 1.83347 4.57506 1.83347 4.66481V7.58151Z" fill="#121110"/>
</svg>
