<svg width="24" height="23" viewBox="0 0 24 23" fill="none" xmlns="http://www.w3.org/2000/svg">
<path d="M5.02676 17.413C6.01842 16.6771 7.09871 16.096 8.26761 15.6697C9.43651 15.2434 10.6806 15.0303 11.9998 15.0303C13.319 15.0303 14.5631 15.2434 15.732 15.6697C16.9009 16.096 17.9812 16.6771 18.9729 17.413C19.6983 16.6157 20.273 15.6929 20.6971 14.6444C21.1211 13.5958 21.3331 12.4606 21.3331 11.2386C21.3331 8.65247 20.4241 6.45038 18.6061 4.63233C16.788 2.81427 14.5859 1.90524 11.9998 1.90524C9.4137 1.90524 7.21161 2.81427 5.39356 4.63233C3.5755 6.45038 2.66647 8.65247 2.66647 11.2386C2.66647 12.4606 2.8785 13.5958 3.30254 14.6444C3.72659 15.6929 4.30132 16.6157 5.02676 17.413ZM12.0002 12.1135C10.935 12.1135 10.0367 11.748 9.30527 11.0168C8.57387 10.2856 8.20817 9.38743 8.20817 8.32226C8.20817 7.25708 8.57375 6.35878 9.30492 5.62738C10.0361 4.89598 10.9343 4.53027 11.9995 4.53027C13.0646 4.53027 13.9629 4.89586 14.6943 5.62703C15.4257 6.35822 15.7914 7.25639 15.7914 8.32156C15.7914 9.38675 15.4259 10.285 14.6947 11.0164C13.9635 11.7478 13.0653 12.1135 12.0002 12.1135ZM11.9998 22.3219C10.4607 22.3219 9.01696 22.0325 7.66859 21.4536C6.32019 20.8747 5.14717 20.0865 4.14951 19.0889C3.15188 18.0912 2.36364 16.9182 1.7848 15.5698C1.20593 14.2214 0.916504 12.7777 0.916504 11.2386C0.916504 9.69947 1.20593 8.25573 1.7848 6.90736C2.36364 5.55896 3.15188 4.38594 4.14951 3.38828C5.14717 2.39065 6.32019 1.60241 7.66859 1.02357C9.01696 0.444705 10.4607 0.155273 11.9998 0.155273C13.5389 0.155273 14.9827 0.444705 16.331 1.02357C17.6794 1.60241 18.8524 2.39065 19.8501 3.38828C20.8477 4.38594 21.636 5.55896 22.2148 6.90736C22.7937 8.25573 23.0831 9.69947 23.0831 11.2386C23.0831 12.7777 22.7937 14.2214 22.2148 15.5698C21.636 16.9182 20.8477 18.0912 19.8501 19.0889C18.8524 20.0865 17.6794 20.8747 16.331 21.4536C14.9827 22.0325 13.5389 22.3219 11.9998 22.3219ZM11.9998 20.5719C13.0528 20.5719 14.068 20.4025 15.0455 20.0637C16.0229 19.725 16.8909 19.2512 17.6492 18.6424C16.8909 18.0561 16.0342 17.5991 15.0791 17.2716C14.1241 16.944 13.0977 16.7802 11.9998 16.7802C10.9019 16.7802 9.87362 16.9421 8.91485 17.266C7.95608 17.5898 7.10128 18.0486 6.35043 18.6424C7.10876 19.2512 7.97666 19.725 8.95414 20.0637C9.93159 20.4025 10.9468 20.5719 11.9998 20.5719ZM11.9998 10.3636C12.5801 10.3636 13.0655 10.1684 13.4559 9.77803C13.8463 9.38762 14.0415 8.90225 14.0415 8.32191C14.0415 7.74157 13.8463 7.2562 13.4559 6.86579C13.0655 6.47541 12.5801 6.28022 11.9998 6.28022C11.4195 6.28022 10.9341 6.47541 10.5437 6.86579C10.1533 7.2562 9.95811 7.74157 9.95811 8.32191C9.95811 8.90225 10.1533 9.38762 10.5437 9.77803C10.9341 10.1684 11.4195 10.3636 11.9998 10.3636Z" fill="#121110"/>
</svg>
