<svg width="16" height="19" viewBox="0 0 16 19" fill="none" xmlns="http://www.w3.org/2000/svg">
<path d="M7.99981 16.7942L3.36905 18.7821C2.66607 19.0827 1.99824 19.0251 1.36556 18.6093C0.732855 18.1935 0.416504 17.6087 0.416504 16.8548V2.61484C0.416504 2.02552 0.620671 1.52669 1.029 1.11836C1.43734 0.710026 1.93616 0.505859 2.52549 0.505859H13.4741C14.0634 0.505859 14.5623 0.710026 14.9706 1.11836C15.3789 1.52669 15.5831 2.02552 15.5831 2.61484V16.8548C15.5831 17.6087 15.2668 18.1935 14.6341 18.6093C14.0014 19.0251 13.3335 19.0827 12.6306 18.7821L7.99981 16.7942ZM7.99981 14.8558L13.3283 17.151C13.448 17.2034 13.562 17.1921 13.6705 17.1174C13.7789 17.0426 13.8331 16.9416 13.8331 16.8144V2.61484C13.8331 2.52509 13.7957 2.44281 13.721 2.36801C13.6462 2.29322 13.5639 2.25583 13.4741 2.25583H2.52549C2.43573 2.25583 2.35345 2.29322 2.27865 2.36801C2.20387 2.44281 2.16647 2.52509 2.16647 2.61484V16.8144C2.16647 16.9416 2.2207 17.0426 2.32914 17.1174C2.4376 17.1921 2.55166 17.2034 2.67132 17.151L7.99981 14.8558Z" fill="#121110"/>
</svg>
