<svg width="12" height="23" viewBox="0 0 12 23" fill="none" xmlns="http://www.w3.org/2000/svg">
<path d="M5.99997 22.3219C4.54315 22.3219 3.30395 21.8111 2.28236 20.7895C1.26079 19.7679 0.75 18.5287 0.75 17.0719C0.75 16.1835 0.956043 15.3601 1.36813 14.6017C1.7802 13.8434 2.35193 13.2159 3.08333 12.7194V3.07191C3.08333 2.25676 3.36565 1.56686 3.93027 1.00222C4.49492 0.437588 5.18482 0.155273 5.99997 0.155273C6.81512 0.155273 7.50502 0.437588 8.06967 1.00222C8.63429 1.56686 8.91661 2.25676 8.91661 3.07191V12.7194C9.64801 13.2159 10.2197 13.8434 10.6318 14.6017C11.0439 15.3601 11.2499 16.1835 11.2499 17.0719C11.2499 18.5287 10.7392 19.7679 9.71758 20.7895C8.69599 21.8111 7.45679 22.3219 5.99997 22.3219ZM4.8333 10.2963H7.16664V8.83793H5.99997V7.80589H7.16664V5.33793H5.99997V4.30589H7.16664V3.07191C7.16664 2.74136 7.05483 2.46427 6.83122 2.24066C6.60761 2.01705 6.33053 1.90524 5.99997 1.90524C5.66941 1.90524 5.39233 2.01705 5.16872 2.24066C4.94511 2.46427 4.8333 2.74136 4.8333 3.07191V10.2963Z" fill="#121110"/>
</svg>
