<svg width="16" height="22" viewBox="0 0 16 22" fill="none" xmlns="http://www.w3.org/2000/svg">
<path d="M8.37479 18.2729L8 18.1214L7.62521 18.2729L2.92861 20.1715C2.92805 20.1717 2.92749 20.172 2.92694 20.1722C2.46506 20.3565 2.06801 20.318 1.62436 20.02C1.18488 19.7247 1 19.3722 1 18.8667V2.4C1 1.99552 1.13011 1.68411 1.40711 1.40711C1.68411 1.13011 1.99552 1 2.4 1H13.6C14.0045 1 14.3159 1.13011 14.5929 1.40711L15.3 0.7L14.5929 1.40711C14.8699 1.68411 15 1.99552 15 2.4V18.8667C15 19.3722 14.8151 19.7247 14.3756 20.02C13.932 20.318 13.535 20.3565 13.0731 20.1722C13.0726 20.172 13.072 20.1718 13.0714 20.1715L8.37479 18.2729Z" fill="#A0A09F" stroke="white" stroke-width="2"/>
</svg>
