<svg width="18" height="18" viewBox="0 0 18 18" fill="none" xmlns="http://www.w3.org/2000/svg">
<mask id="mask0_31_1453" style="mask-type:alpha" maskUnits="userSpaceOnUse" x="0" y="0" width="18" height="18">
<rect width="18" height="18" fill="#D9D9D9"/>
</mask>
<g mask="url(#mask0_31_1453)">
<path d="M9 13.5001L6.35625 14.5688C5.91875 14.7438 5.5 14.6969 5.1 14.4282C4.7 14.1594 4.5 13.7876 4.5 13.3126V4.05007C4.5 3.67507 4.63125 3.35632 4.89375 3.09382C5.15625 2.83132 5.475 2.70007 5.85 2.70007H12.15C12.525 2.70007 12.8438 2.83132 13.1062 3.09382C13.3687 3.35632 13.5 3.67507 13.5 4.05007V13.3126C13.5 13.7876 13.3 14.1594 12.9 14.4282C12.5 14.6969 12.0812 14.7438 11.6437 14.5688L9 13.5001Z" fill="#FD6B36"/>
</g>
</svg>
