<svg width="18" height="18" viewBox="0 0 18 18" fill="none" xmlns="http://www.w3.org/2000/svg">
<mask id="mask0_31_1461" style="mask-type:alpha" maskUnits="userSpaceOnUse" x="0" y="0" width="18" height="18">
<rect width="18" height="18" fill="#D9D9D9"/>
</mask>
<g mask="url(#mask0_31_1461)">
<path d="M9.02057 12.0376C9.9691 12.0376 10.7746 11.6993 11.4371 11.0229C12.0996 10.3464 12.4309 9.5339 12.4309 8.58536C12.4309 7.63684 12.0989 6.83132 11.4349 6.16882C10.7709 5.50632 9.96468 5.17507 9.01615 5.17507C8.06762 5.17507 7.25586 5.50706 6.58086 6.17104C5.90586 6.835 5.56836 7.64125 5.56836 8.58979C5.56836 9.54872 5.90399 10.3631 6.57525 11.0329C7.24652 11.7027 8.06162 12.0376 9.02057 12.0376ZM9.01836 10.6313C8.45065 10.6313 7.9681 10.4326 7.57071 10.0352C7.17331 9.63784 6.97461 9.15529 6.97461 8.58757C6.97461 8.03029 7.17331 7.55659 7.57071 7.16647C7.9681 6.77637 8.45065 6.58132 9.01836 6.58132C9.57565 6.58132 10.0493 6.77637 10.4395 7.16647C10.8296 7.55659 11.0246 8.03029 11.0246 8.58757C11.0246 9.15529 10.8296 9.63784 10.4395 10.0352C10.0493 10.4326 9.57565 10.6313 9.01836 10.6313ZM8.99961 14.2501C7.24961 14.2501 5.65586 13.7876 4.21836 12.8626C2.78086 11.9376 1.69961 10.6938 0.974609 9.13132C0.949609 9.06882 0.927734 8.9907 0.908984 8.89695C0.890234 8.8032 0.880859 8.70632 0.880859 8.60632C0.880859 8.50632 0.890234 8.40945 0.908984 8.3157C0.927734 8.22195 0.949609 8.14382 0.974609 8.08132C1.69961 6.51882 2.78281 5.2782 4.22421 4.35945C5.6656 3.4407 7.2574 2.98132 8.99961 2.98132C10.7418 2.98132 12.3336 3.4407 13.775 4.35945C15.2164 5.2782 16.2996 6.51882 17.0246 8.08132C17.0496 8.14382 17.0715 8.22195 17.0902 8.3157C17.109 8.40945 17.1184 8.50632 17.1184 8.60632C17.1184 8.70632 17.109 8.8032 17.0902 8.89695C17.0715 8.9907 17.0496 9.06882 17.0246 9.13132C16.2996 10.6938 15.2184 11.9376 13.7809 12.8626C12.3434 13.7876 10.7496 14.2501 8.99961 14.2501Z" fill="#FD6B36"/>
</g>
</svg>
