<svg xmlns="http://www.w3.org/2000/svg" width="16" height="22" viewBox="0 0 16 22" fill="none">
  <path d="M8.38555 18.9232L8 18.7621L7.61445 18.9232L2.91791 20.8856C2.91745 20.8858 2.91698 20.886 2.91651 20.8862C2.46441 21.0727 2.07807 21.0363 1.63708 20.73C1.19769 20.4249 1 20.0497 1 19.5013V2.48073C1 2.04341 1.13776 1.70925 1.4187 1.41886C1.69841 1.12975 2.00634 1 2.4 1H13.6C13.9937 1 14.3016 1.12975 14.5813 1.41886L15.3 0.723547L14.5813 1.41886C14.8622 1.70925 15 2.04341 15 2.48073V19.5013C15 20.0497 14.8023 20.4249 14.3629 20.73C13.9219 21.0363 13.5356 21.0727 13.0835 20.8862C13.083 20.886 13.0826 20.8858 13.0821 20.8856L8.38555 18.9232Z" fill="white" stroke="#A0A09F" stroke-width="2"/>
</svg>