<svg xmlns="http://www.w3.org/2000/svg" width="37" height="36" viewBox="0 0 37 36" fill="none">
  <path d="M16.7 19.8V25.2C16.7 25.71 16.8725 26.1375 17.2175 26.4825C17.5625 26.8275 17.99 27 18.5 27C19.01 27 19.4375 26.8275 19.7825 26.4825C20.1275 26.1375 20.3 25.71 20.3 25.2V19.8H25.7C26.21 19.8 26.6375 19.6275 26.9825 19.2825C27.3275 18.9375 27.5 18.51 27.5 18C27.5 17.49 27.3275 17.0625 26.9825 16.7175C26.6375 16.3725 26.21 16.2 25.7 16.2H20.3V10.8C20.3 10.29 20.1275 9.8625 19.7825 9.5175C19.4375 9.1725 19.01 9 18.5 9C17.99 9 17.5625 9.1725 17.2175 9.5175C16.8725 9.8625 16.7 10.29 16.7 10.8V16.2H11.3C10.79 16.2 10.3625 16.3725 10.0175 16.7175C9.6725 17.0625 9.5 17.49 9.5 18C9.5 18.51 9.6725 18.9375 10.0175 19.2825C10.3625 19.6275 10.79 19.8 11.3 19.8H16.7ZM18.5 36C16.01 36 13.67 35.5275 11.48 34.5825C9.29 33.6375 7.385 32.355 5.765 30.735C4.145 29.115 2.8625 27.21 1.9175 25.02C0.9725 22.83 0.5 20.49 0.5 18C0.5 15.51 0.9725 13.17 1.9175 10.98C2.8625 8.79 4.145 6.885 5.765 5.265C7.385 3.645 9.29 2.3625 11.48 1.4175C13.67 0.4725 16.01 0 18.5 0C20.99 0 23.33 0.4725 25.52 1.4175C27.71 2.3625 29.615 3.645 31.235 5.265C32.855 6.885 34.1375 8.79 35.0825 10.98C36.0275 13.17 36.5 15.51 36.5 18C36.5 20.49 36.0275 22.83 35.0825 25.02C34.1375 27.21 32.855 29.115 31.235 30.735C29.615 32.355 27.71 33.6375 25.52 34.5825C23.33 35.5275 20.99 36 18.5 36ZM18.5 32.4C22.52 32.4 25.925 31.005 28.715 28.215C31.505 25.425 32.9 22.02 32.9 18C32.9 13.98 31.505 10.575 28.715 7.785C25.925 4.995 22.52 3.6 18.5 3.6C14.48 3.6 11.075 4.995 8.285 7.785C5.495 10.575 4.1 13.98 4.1 18C4.1 22.02 5.495 25.425 8.285 28.215C11.075 31.005 14.48 32.4 18.5 32.4Z" fill="#FD6B36"/>
</svg>