<svg xmlns="http://www.w3.org/2000/svg" width="18" height="20" viewBox="0 0 18 20" fill="none">
  <path d="M3.6875 19.5625C3.10313 19.5625 2.60286 19.3544 2.18672 18.9383C1.77057 18.5221 1.5625 18.0219 1.5625 17.4375V3.625C1.26146 3.625 1.00911 3.52318 0.805469 3.31953C0.601823 3.11589 0.5 2.86354 0.5 2.5625C0.5 2.26146 0.601823 2.00911 0.805469 1.80547C1.00911 1.60182 1.26146 1.5 1.5625 1.5H5.8125C5.8125 1.19896 5.91432 0.946615 6.11797 0.742969C6.32161 0.539323 6.57396 0.4375 6.875 0.4375H11.125C11.426 0.4375 11.6784 0.539323 11.882 0.742969C12.0857 0.946615 12.1875 1.19896 12.1875 1.5H16.4375C16.7385 1.5 16.9909 1.60182 17.1945 1.80547C17.3982 2.00911 17.5 2.26146 17.5 2.5625C17.5 2.86354 17.3982 3.11589 17.1945 3.31953C16.9909 3.52318 16.7385 3.625 16.4375 3.625V17.4375C16.4375 18.0219 16.2294 18.5221 15.8133 18.9383C15.3971 19.3544 14.8969 19.5625 14.3125 19.5625H3.6875ZM14.3125 3.625H3.6875V17.4375H14.3125V3.625ZM5.8125 15.3125H7.9375V5.75H5.8125V15.3125ZM10.0625 15.3125H12.1875V5.75H10.0625V15.3125Z" fill="#717070"/>
</svg>