<svg width="22" height="25" viewBox="0 0 22 25" fill="none" xmlns="http://www.w3.org/2000/svg">
<path d="M2.70426 24.5608C2.08198 24.5608 1.54926 24.3356 1.10612 23.8853C0.662977 23.4351 0.441406 22.8937 0.441406 22.2614V5.39949C0.441406 4.76717 0.662977 4.22586 1.10612 3.77557C1.54926 3.32528 2.08198 3.10014 2.70426 3.10014H8.07855C8.24617 2.41885 8.60266 1.8653 9.14803 1.43949C9.69342 1.01368 10.3115 0.800781 11.0023 0.800781C11.6931 0.800781 12.3109 1.01368 12.8557 1.43949C13.4005 1.8653 13.7566 2.41885 13.9243 3.10014H19.2985C19.9208 3.10014 20.4535 3.32528 20.8967 3.77557C21.3398 4.22586 21.5614 4.76717 21.5614 5.39949V22.2614C21.5614 22.8937 21.3398 23.4351 20.8967 23.8853C20.4535 24.3356 19.9208 24.5608 19.2985 24.5608H2.70426ZM11.0014 4.63304C11.2193 4.63304 11.3995 4.56065 11.542 4.41588C11.6845 4.2711 11.7557 4.08801 11.7557 3.86659C11.7557 3.64517 11.6845 3.46207 11.542 3.3173C11.3995 3.17252 11.2193 3.10014 11.0014 3.10014C10.7835 3.10014 10.6033 3.17252 10.4608 3.3173C10.3184 3.46207 10.2471 3.64517 10.2471 3.86659C10.2471 4.08801 10.3184 4.2711 10.4608 4.41588C10.6033 4.56065 10.7835 4.63304 11.0014 4.63304ZM2.70426 20.5688C3.8776 19.5895 5.17664 18.8603 6.60141 18.3813C8.02617 17.9022 9.49283 17.6627 11.0014 17.6627C12.51 17.6627 13.9766 17.8969 15.4014 18.3653C16.8262 18.8337 18.1252 19.5682 19.2985 20.5688V5.39949H2.70426V20.5688ZM11.009 16.1298C12.2611 16.1298 13.3271 15.6801 14.2071 14.7808C15.0871 13.8814 15.5271 12.7956 15.5271 11.5234C15.5271 10.2511 15.0846 9.16788 14.1995 8.27368C13.3144 7.37949 12.2459 6.93239 10.9938 6.93239C9.74173 6.93239 8.67569 7.38207 7.79569 8.28141C6.91569 9.18078 6.47569 10.2666 6.47569 11.5388C6.47569 12.8111 6.91823 13.8943 7.8033 14.7885C8.68839 15.6827 9.75696 16.1298 11.009 16.1298ZM4.24426 22.2614H17.7585C16.7947 21.5163 15.7366 20.9467 14.5843 20.5529C13.4319 20.159 12.2376 19.9621 11.0014 19.9621C9.76522 19.9621 8.57617 20.159 7.43426 20.5529C6.29236 20.9467 5.22903 21.5163 4.24426 22.2614ZM11.0014 13.8305C10.3728 13.8305 9.83855 13.6069 9.39855 13.1598C8.95855 12.7127 8.73855 12.1698 8.73855 11.5311C8.73855 10.8924 8.95855 10.3495 9.39855 9.90239C9.83855 9.4553 10.3728 9.23175 11.0014 9.23175C11.63 9.23175 12.1643 9.4553 12.6043 9.90239C13.0443 10.3495 13.2643 10.8924 13.2643 11.5311C13.2643 12.1698 13.0443 12.7127 12.6043 13.1598C12.1643 13.6069 11.63 13.8305 11.0014 13.8305Z" fill="#414140"/>
</svg>
