<svg width="18" height="18" viewBox="0 0 18 18" fill="none" xmlns="http://www.w3.org/2000/svg">
<mask id="mask0_523_8713" style="mask-type:alpha" maskUnits="userSpaceOnUse" x="0" y="0" width="18" height="18">
<rect width="18" height="18" fill="#D9D9D9"/>
</mask>
<g mask="url(#mask0_523_8713)">
<path d="M6.60078 12.6008H3.15078C2.77953 12.6008 2.46172 12.4685 2.19734 12.204C1.93297 11.9395 1.80078 11.6215 1.80078 11.25V3.14547C1.80078 2.77401 1.93297 2.45703 2.19734 2.19453C2.46172 1.93203 2.77953 1.80078 3.15078 1.80078H14.8508C15.222 1.80078 15.5398 1.93304 15.8042 2.19757C16.0686 2.46209 16.2008 2.78008 16.2008 3.15153V11.2561C16.2008 11.6276 16.0686 11.9445 15.8042 12.207C15.5398 12.4695 15.222 12.6008 14.8508 12.6008H11.4008L9.56328 15.357C9.42717 15.557 9.24002 15.657 9.00183 15.657C8.76363 15.657 8.57578 15.557 8.43828 15.357L6.60078 12.6008Z" fill="#D0CFCF"/>
</g>
</svg>
