<svg width="18" height="18" viewBox="0 0 18 18" fill="none" xmlns="http://www.w3.org/2000/svg">
<mask id="mask0_523_8721" style="mask-type:alpha" maskUnits="userSpaceOnUse" x="0" y="0" width="18" height="18">
<rect width="18" height="18" fill="#D9D9D9"/>
</mask>
<g mask="url(#mask0_523_8721)">
<path d="M9.00078 14.8125C8.83828 14.8125 8.67891 14.7844 8.52266 14.7281C8.36641 14.6719 8.21953 14.5813 8.08203 14.4563L6.97578 13.4438C5.61328 12.2313 4.41016 11.0469 3.36641 9.89063C2.32266 8.73438 1.80078 7.475 1.80078 6.1125C1.80078 5.0125 2.17578 4.09375 2.92578 3.35625C3.67578 2.61875 4.60703 2.25 5.71953 2.25C6.35703 2.25 6.96016 2.38438 7.52891 2.65313C8.09766 2.92188 8.58828 3.30625 9.00078 3.80625C9.43828 3.30625 9.93516 2.92188 10.4914 2.65313C11.0477 2.38438 11.6445 2.25 12.282 2.25C13.3945 2.25 14.3258 2.61875 15.0758 3.35625C15.8258 4.09375 16.2008 5.0125 16.2008 6.1125C16.2008 7.475 15.6789 8.73438 14.6352 9.89063C13.5914 11.0469 12.3883 12.2313 11.0258 13.4438L9.91953 14.4563C9.78203 14.5813 9.63516 14.6719 9.47891 14.7281C9.32266 14.7844 9.16328 14.8125 9.00078 14.8125Z" fill="#D0CFCF"/>
</g>
</svg>
