<svg width="25" height="26" viewBox="0 0 25 26" fill="none" xmlns="http://www.w3.org/2000/svg">
<mask id="mask0_523_8944" style="mask-type:alpha" maskUnits="userSpaceOnUse" x="0" y="0" width="25" height="26">
<rect width="25" height="26" fill="#D9D9D9"/>
</mask>
<g mask="url(#mask0_523_8944)">
<path d="M17.3214 22C16.5774 22 15.9449 21.7266 15.4241 21.1797C14.9033 20.6328 14.6429 19.9688 14.6429 19.1875C14.6429 19.0625 14.6503 18.9492 14.6652 18.8477C14.6801 18.7461 14.7024 18.6328 14.7321 18.5078L9.41964 15.1094C9.19643 15.3594 8.93338 15.5391 8.63049 15.6484C8.3276 15.7578 8.0103 15.8125 7.67857 15.8125C6.93452 15.8125 6.30208 15.5391 5.78125 14.9922C5.26042 14.4453 5 13.7812 5 13C5 12.2188 5.26042 11.5547 5.78125 11.0078C6.30208 10.4609 6.93452 10.1875 7.67857 10.1875C8.00595 10.1875 8.32217 10.2461 8.62723 10.3633C8.93229 10.4805 9.19643 10.6562 9.41964 10.8906L14.7321 7.49219C14.7024 7.36719 14.6801 7.25391 14.6652 7.15234C14.6503 7.05078 14.6429 6.9375 14.6429 6.8125C14.6429 6.03125 14.9033 5.36719 15.4241 4.82031C15.9449 4.27344 16.5774 4 17.3214 4C18.0655 4 18.6979 4.27344 19.2188 4.82031C19.7396 5.36719 20 6.03125 20 6.8125C20 7.59375 19.7396 8.25781 19.2188 8.80469C18.6979 9.35156 18.0655 9.625 17.3214 9.625C16.9897 9.625 16.6724 9.57031 16.3695 9.46094C16.0666 9.35156 15.8036 9.17188 15.5804 8.92188L10.2679 12.3203C10.2976 12.4453 10.3199 12.5586 10.3348 12.6602C10.3497 12.7617 10.3571 12.875 10.3571 13C10.3571 13.125 10.3497 13.2383 10.3348 13.3398C10.3199 13.4414 10.2976 13.5547 10.2679 13.6797L15.5804 17.0781C15.8036 16.8125 16.0666 16.6289 16.3695 16.5273C16.6724 16.4258 16.9897 16.375 17.3214 16.375C18.0655 16.375 18.6979 16.6484 19.2188 17.1953C19.7396 17.7422 20 18.4062 20 19.1875C20 19.9688 19.7396 20.6328 19.2188 21.1797C18.6979 21.7266 18.0655 22 17.3214 22Z" fill="#A0A09F"/>
</g>
</svg>
