<svg width="25" height="26" viewBox="0 0 25 26" fill="none" xmlns="http://www.w3.org/2000/svg">
<mask id="mask0_523_8926" style="mask-type:alpha" maskUnits="userSpaceOnUse" x="0" y="0" width="25" height="26">
<rect width="25" height="26" fill="#D9D9D9"/>
</mask>
<g mask="url(#mask0_523_8926)">
<path d="M12.4351 19.5466L12.4351 19.5466L12.4316 19.5433C10.7527 17.9677 9.37091 16.6324 8.28442 15.5362C7.20271 14.4449 6.37223 13.5073 5.78283 12.7207C5.19058 11.9303 4.80791 11.2558 4.60362 10.6928L4.60361 10.6927C4.39347 10.1136 4.29102 9.53893 4.29102 8.96523C4.29102 7.86483 4.65326 6.95933 5.37971 6.20381C6.10506 5.44945 6.96213 5.08398 7.99414 5.08398C8.71459 5.08398 9.4072 5.27772 10.0833 5.68189C10.7534 6.0825 11.3504 6.67503 11.8665 7.48649L12.4993 8.48143L13.1322 7.48649C13.6483 6.67503 14.2453 6.0825 14.9154 5.68189C15.5915 5.27772 16.2841 5.08398 17.0046 5.08398C18.0366 5.08398 18.8936 5.44945 19.619 6.20381C20.3454 6.95933 20.7077 7.86483 20.7077 8.96523C20.7077 9.54222 20.6084 10.1085 20.4074 10.6677L21.1131 10.9215L20.4074 10.6678C20.2129 11.2087 19.8368 11.8677 19.2443 12.6498C18.6527 13.4306 17.819 14.3749 16.7335 15.4859C15.6461 16.5989 14.2402 17.9694 12.5135 19.5989L12.5018 19.6099L12.4351 19.5466Z" stroke="#A0A09F" stroke-width="1.5"/>
</g>
</svg>
