<svg xmlns="http://www.w3.org/2000/svg" width="18" height="18" viewBox="0 0 18 18" fill="none">
  <mask id="mask0_1372_3009" style="mask-type:alpha" maskUnits="userSpaceOnUse" x="0" y="0" width="18" height="18">
    <rect width="18" height="18" fill="#D9D9D9"/>
  </mask>
  <g mask="url(#mask0_1372_3009)">
    <path d="M9.02094 12.0377C9.96946 12.0377 10.775 11.6995 11.4375 11.023C12.1 10.3465 12.4312 9.53402 12.4312 8.58548C12.4312 7.63696 12.0992 6.83145 11.4353 6.16895C10.7713 5.50645 9.96505 5.1752 9.01651 5.1752C8.06799 5.1752 7.25623 5.50718 6.58123 6.17116C5.90623 6.83512 5.56873 7.64137 5.56873 8.58991C5.56873 9.54885 5.90436 10.3632 6.57562 11.033C7.24688 11.7028 8.06199 12.0377 9.02094 12.0377ZM9.01873 10.6314C8.45101 10.6314 7.96846 10.4327 7.57108 10.0353C7.17368 9.63796 6.97498 9.15541 6.97498 8.5877C6.97498 8.03041 7.17368 7.55671 7.57108 7.1666C7.96846 6.7765 8.45101 6.58145 9.01873 6.58145C9.57601 6.58145 10.0497 6.7765 10.4398 7.1666C10.8299 7.55671 11.025 8.03041 11.025 8.5877C11.025 9.15541 10.8299 9.63796 10.4398 10.0353C10.0497 10.4327 9.57601 10.6314 9.01873 10.6314ZM8.99998 14.2502C7.24998 14.2502 5.65623 13.7877 4.21873 12.8627C2.78123 11.9377 1.69998 10.6939 0.974976 9.13145C0.949976 9.06895 0.928101 8.99082 0.909351 8.89707C0.890601 8.80332 0.881226 8.70645 0.881226 8.60645C0.881226 8.50645 0.890601 8.40957 0.909351 8.31582C0.928101 8.22207 0.949976 8.14395 0.974976 8.08145C1.69998 6.51895 2.78318 5.27832 4.22458 4.35957C5.66596 3.44082 7.25776 2.98145 8.99998 2.98145C10.7422 2.98145 12.334 3.44082 13.7754 4.35957C15.2168 5.27832 16.3 6.51895 17.025 8.08145C17.05 8.14395 17.0719 8.22207 17.0906 8.31582C17.1094 8.40957 17.1187 8.50645 17.1187 8.60645C17.1187 8.70645 17.1094 8.80332 17.0906 8.89707C17.0719 8.99082 17.05 9.06895 17.025 9.13145C16.3 10.6939 15.2187 11.9377 13.7812 12.8627C12.3437 13.7877 10.75 14.2502 8.99998 14.2502Z" fill="#FD6B36"/>
  </g>
</svg>