<svg width="30" height="30" viewBox="0 0 30 30" fill="none" xmlns="http://www.w3.org/2000/svg">
<mask id="mask0_920_10483" style="mask-type:alpha" maskUnits="userSpaceOnUse" x="0" y="0" width="30" height="30">
<rect width="30" height="30" fill="#D9D9D9"/>
</mask>
<g mask="url(#mask0_920_10483)">
<path d="M15 22.498L10.5938 24.2793C9.86458 24.571 9.16667 24.4928 8.5 24.0449C7.83333 23.597 7.5 22.9772 7.5 22.1855V6.74805C7.5 6.12305 7.71875 5.5918 8.15625 5.1543C8.59375 4.7168 9.125 4.49805 9.75 4.49805H20.25C20.875 4.49805 21.4062 4.7168 21.8438 5.1543C22.2812 5.5918 22.5 6.12305 22.5 6.74805V22.1855C22.5 22.9772 22.1667 23.597 21.5 24.0449C20.8333 24.4928 20.1354 24.571 19.4062 24.2793L15 22.498Z" fill="#D0CFCF"/>
</g>
</svg>
