<svg width="39" height="40" viewBox="0 0 39 40" fill="none" xmlns="http://www.w3.org/2000/svg">
<path d="M19.5 28.7883L13.6988 31.2643C12.8181 31.6388 11.9815 31.567 11.1889 31.0491C10.3963 30.5312 10 29.8028 10 28.8638V11.1269C10 10.3928 10.2558 9.77152 10.7673 9.26291C11.2789 8.7543 11.9038 8.5 12.642 8.5H26.358C27.0962 8.5 27.7211 8.7543 28.2327 9.26291C28.7442 9.77152 29 10.3928 29 11.1269V28.8638C29 29.8028 28.6037 30.5312 27.8111 31.0491C27.0185 31.567 26.1818 31.6388 25.3012 31.2643L19.5 28.7883ZM19.5 26.3739L26.1753 29.2327C26.3252 29.2979 26.4681 29.2839 26.6039 29.1908C26.7398 29.0976 26.8077 28.9718 26.8077 28.8135V11.1269C26.8077 11.0151 26.7609 10.9126 26.6672 10.8194C26.5735 10.7263 26.4704 10.6797 26.358 10.6797H12.642C12.5296 10.6797 12.4265 10.7263 12.3328 10.8194C12.2391 10.9126 12.1923 11.0151 12.1923 11.1269V28.8135C12.1923 28.9718 12.2602 29.0976 12.3961 29.1908C12.5319 29.2839 12.6748 29.2979 12.8247 29.2327L19.5 26.3739Z" fill="#A0A09F"/>
</svg>
