<svg width="30" height="30" viewBox="0 0 30 30" fill="none" xmlns="http://www.w3.org/2000/svg">
<mask id="mask0_523_9195" style="mask-type:alpha" maskUnits="userSpaceOnUse" x="0" y="0" width="30" height="30">
<rect width="30" height="30" fill="#D9D9D9"/>
</mask>
<g mask="url(#mask0_523_9195)">
<path d="M14.5297 19.8586C15.8733 19.8586 17.0142 19.3783 17.9527 18.4178C18.8911 17.4573 19.3603 16.3037 19.3603 14.9569C19.3603 13.6102 18.89 12.4664 17.9495 11.5258C17.009 10.5851 15.867 10.1148 14.5234 10.1148C13.1799 10.1148 12.03 10.5862 11.0739 11.5289C10.1178 12.4717 9.63972 13.6164 9.63972 14.9632C9.63972 16.3248 10.1151 17.481 11.066 18.4321C12.0168 19.3831 13.1714 19.8586 14.5297 19.8586ZM14.5266 17.8619C13.7224 17.8619 13.0389 17.5798 12.476 17.0155C11.9131 16.4513 11.6316 15.7661 11.6316 14.9601C11.6316 14.1688 11.9131 13.4962 12.476 12.9423C13.0389 12.3884 13.7224 12.1115 14.5266 12.1115C15.3159 12.1115 15.9869 12.3884 16.5395 12.9423C17.0921 13.4962 17.3684 14.1688 17.3684 14.9601C17.3684 15.7661 17.0921 16.4513 16.5395 17.0155C15.9869 17.5798 15.3159 17.8619 14.5266 17.8619ZM14.5 23C12.0212 23 9.76366 22.3433 7.72748 21.03C5.6913 19.7166 4.15974 17.9506 3.13279 15.7321C3.09738 15.6434 3.0664 15.5324 3.03984 15.3993C3.01328 15.2662 3 15.1287 3 14.9867C3 14.8447 3.01328 14.7072 3.03984 14.574C3.0664 14.4409 3.09738 14.33 3.13279 14.2413C4.15974 12.0227 5.69406 10.2612 7.73577 8.95674C9.77746 7.65225 12.0322 7 14.5 7C16.9678 7 19.2225 7.65225 21.2642 8.95674C23.3059 10.2612 24.8403 12.0227 25.8672 14.2413C25.9026 14.33 25.9336 14.4409 25.9602 14.574C25.9867 14.7072 26 14.8447 26 14.9867C26 15.1287 25.9867 15.2662 25.9602 15.3993C25.9336 15.5324 25.9026 15.6434 25.8672 15.7321C24.8403 17.9506 23.3087 19.7166 21.2725 21.03C19.2363 22.3433 16.9788 23 14.5 23Z" fill="#D0CFCF"/>
</g>
</svg>
