<svg xmlns="http://www.w3.org/2000/svg" width="20" height="24" viewBox="0 0 20 24" fill="none">
  <mask id="mask0_1372_2998" style="mask-type:alpha" maskUnits="userSpaceOnUse" x="0" y="0" width="20" height="24">
    <rect width="20" height="24" fill="#D9D9D9"/>
  </mask>
  <g mask="url(#mask0_1372_2998)">
    <path d="M4.5 19.85C4.0875 19.85 3.73437 19.6957 3.44062 19.3873C3.14687 19.0789 3 18.7081 3 18.275V6.72495C3 6.29183 3.14687 5.92105 3.44062 5.61261C3.73437 5.30417 4.0875 5.14995 4.5 5.14995H8.0625C8.17361 4.68328 8.40992 4.30412 8.77144 4.01245C9.13297 3.72078 9.54269 3.57495 10.0006 3.57495C10.4585 3.57495 10.8681 3.72078 11.2292 4.01245C11.5903 4.30412 11.8264 4.68328 11.9375 5.14995H15.5C15.9125 5.14995 16.2656 5.30417 16.5594 5.61261C16.8531 5.92105 17 6.29183 17 6.72495V18.275C17 18.7081 16.8531 19.0789 16.5594 19.3873C16.2656 19.6957 15.9125 19.85 15.5 19.85H4.5ZM10 6.19995C10.1444 6.19995 10.2639 6.15037 10.3583 6.0512C10.4528 5.95203 10.5 5.82662 10.5 5.67495C10.5 5.52328 10.4528 5.39787 10.3583 5.2987C10.2639 5.19953 10.1444 5.14995 10 5.14995C9.85556 5.14995 9.73611 5.19953 9.64167 5.2987C9.54722 5.39787 9.5 5.52328 9.5 5.67495C9.5 5.82662 9.54722 5.95203 9.64167 6.0512C9.73611 6.15037 9.85556 6.19995 10 6.19995ZM4.5 17.1156C5.27778 16.4447 6.13889 15.9453 7.08333 15.6171C8.02778 15.289 9 15.125 10 15.125C11 15.125 11.9722 15.2854 12.9167 15.6062C13.8611 15.927 14.7222 16.4302 15.5 17.1156V6.72495H4.5V17.1156ZM10.005 14.075C10.835 14.075 11.5417 13.7669 12.125 13.1509C12.7083 12.5349 13 11.7911 13 10.9197C13 10.0482 12.7067 9.3062 12.12 8.6937C11.5333 8.0812 10.8249 7.77495 9.99496 7.77495C9.16499 7.77495 8.45833 8.08297 7.875 8.699C7.29167 9.31504 7 10.0588 7 10.9302C7 11.8017 7.29335 12.5437 7.88004 13.1562C8.46675 13.7687 9.17508 14.075 10.005 14.075ZM5.52083 18.275H14.4792C13.8403 17.7645 13.1389 17.3744 12.375 17.1046C11.6111 16.8348 10.8194 16.7 10 16.7C9.18056 16.7 8.39236 16.8348 7.63542 17.1046C6.87847 17.3744 6.17361 17.7645 5.52083 18.275ZM10 12.5C9.58333 12.5 9.22917 12.3468 8.9375 12.0406C8.64583 11.7343 8.5 11.3625 8.5 10.925C8.5 10.4875 8.64583 10.1156 8.9375 9.80933C9.22917 9.50308 9.58333 9.34995 10 9.34995C10.4167 9.34995 10.7708 9.50308 11.0625 9.80933C11.3542 10.1156 11.5 10.4875 11.5 10.925C11.5 11.3625 11.3542 11.7343 11.0625 12.0406C10.7708 12.3468 10.4167 12.5 10 12.5Z" fill="#717070"/>
  </g>
</svg>