<svg xmlns="http://www.w3.org/2000/svg" width="20" height="20" viewBox="0 0 20 20" fill="none">
  <mask id="mask0_1372_4784" style="mask-type:alpha" maskUnits="userSpaceOnUse" x="0" y="0" width="20" height="20">
    <rect x="20" width="20" height="20" transform="rotate(90 20 0)" fill="#D9D9D9"/>
  </mask>
  <g mask="url(#mask0_1372_4784)">
    <path d="M9.25 4.75608C9.25 4.54369 9.32145 4.36458 9.46435 4.21875C9.60727 4.07292 9.78435 4 9.9956 4C10.2069 4 10.3854 4.07183 10.5312 4.2155C10.6771 4.35918 10.75 4.53722 10.75 4.7496L10.75 15.2439C10.75 15.4563 10.6785 15.6354 10.5356 15.7812C10.3927 15.9271 10.2156 16 10.0044 16C9.79313 16 9.61458 15.9282 9.46875 15.7845C9.32292 15.6408 9.25 15.4628 9.25 15.2504L9.25 4.75608Z" fill="#EDEDED"/>
  </g>
</svg>