<svg width="26" height="27" viewBox="0 0 26 27" fill="none" xmlns="http://www.w3.org/2000/svg">
<mask id="mask0_589_5017" style="mask-type:alpha" maskUnits="userSpaceOnUse" x="0" y="0" width="26" height="27">
<rect y="0.5" width="26" height="26" fill="#D9D9D9"/>
</mask>
<g mask="url(#mask0_589_5017)">
<path d="M11.4833 15.4503L9.15413 13.1212C8.95551 12.9225 8.70274 12.8232 8.39579 12.8232C8.08885 12.8232 7.83607 12.9225 7.63746 13.1212C7.43885 13.3198 7.33954 13.5725 7.33954 13.8795C7.33954 14.1864 7.43885 14.4392 7.63746 14.6378L10.725 17.7253C10.9416 17.942 11.1944 18.0503 11.4833 18.0503C11.7722 18.0503 12.025 17.942 12.2416 17.7253L18.3625 11.6045C18.5611 11.4059 18.6604 11.1531 18.6604 10.8462C18.6604 10.5392 18.5611 10.2864 18.3625 10.0878C18.1638 9.88921 17.9111 9.78991 17.6041 9.78991C17.2972 9.78991 17.0444 9.88921 16.8458 10.0878L11.4833 15.4503ZM13 24.3337C11.5013 24.3337 10.093 24.0493 8.77496 23.4805C7.4569 22.9118 6.31038 22.1399 5.33538 21.1649C4.36038 20.1899 3.5885 19.0434 3.01975 17.7253C2.451 16.4073 2.16663 14.9989 2.16663 13.5003C2.16663 12.0017 2.451 10.5934 3.01975 9.27532C3.5885 7.95727 4.36038 6.81074 5.33538 5.83574C6.31038 4.86074 7.4569 4.08887 8.77496 3.52012C10.093 2.95137 11.5013 2.66699 13 2.66699C14.4986 2.66699 15.9069 2.95137 17.225 3.52012C18.543 4.08887 19.6895 4.86074 20.6645 5.83574C21.6395 6.81074 22.4114 7.95727 22.9802 9.27532C23.5489 10.5934 23.8333 12.0017 23.8333 13.5003C23.8333 14.9989 23.5489 16.4073 22.9802 17.7253C22.4114 19.0434 21.6395 20.1899 20.6645 21.1649C19.6895 22.1399 18.543 22.9118 17.225 23.4805C15.9069 24.0493 14.4986 24.3337 13 24.3337ZM13 22.167C15.4194 22.167 17.4687 21.3274 19.1479 19.6482C20.827 17.9691 21.6666 15.9198 21.6666 13.5003C21.6666 11.0809 20.827 9.03158 19.1479 7.35241C17.4687 5.67324 15.4194 4.83366 13 4.83366C10.5805 4.83366 8.53121 5.67324 6.85204 7.35241C5.17288 9.03158 4.33329 11.0809 4.33329 13.5003C4.33329 15.9198 5.17288 17.9691 6.85204 19.6482C8.53121 21.3274 10.5805 22.167 13 22.167Z" fill="#A0A09F"/>
</g>
</svg>
